<svg fill="none" height="33" viewBox="0 0 29 33" width="29" xmlns="http://www.w3.org/2000/svg"><path d="m14.5 20c2 0 4 .5625 4 2.75 0 2.0625-.8125 6.5-1.3125 8.3125-.3125 1.1875-1.5625 1.4375-2.6875 1.4375-1.1875 0-2.4375-.25-2.75-1.4375-.5-1.75-1.25-6.25-1.25-8.3125 0-2.1875 1.9375-2.75 4-2.75zm1.6875 10.8125c.5-1.8125 1.3125-6.1875 1.3125-8.0625 0-.5 0-1.75-3-1.75s-3 1.25-3 1.75c0 1.9375.75 6.25 1.25 8.0625 0 .1875.1875.6875 1.75.6875 1.5 0 1.6875-.5 1.6875-.6875zm-1.6875-12.8125c-1.9375 0-3.5-1.5625-3.5-3.5s1.5625-3.5 3.5-3.5c1.875 0 3.5 1.625 3.5 3.5 0 1.9375-1.625 3.5-3.5 3.5zm0-6c-1.4375 0-2.5 1.125-2.5 2.5 0 1.4375 1.0625 2.5 2.5 2.5 1.375 0 2.5-1.0625 2.5-2.5 0-1.375-1.125-2.5-2.5-2.5zm0-11.5c7.6875 0 14 6.3125 14 14 0 5.375-3 10.1875-7.8125 12.5625-.0625.0625-.125.0625-.1875.0625-.1875 0-.375-.125-.5-.25-.125-.25 0-.5625.25-.6875 4.4375-2.25 7.25-6.6875 7.25-11.6875 0-7.125-5.875-13-13-13-7.1875 0-13 5.875-13 13 0 5 2.75 9.4375 7.1875 11.6875.25.125.375.4375.25.6875s-.4375.3125-.6875.1875c-4.8125-2.375-7.75-7.1875-7.75-12.5625 0-7.6875 6.25-14 14-14zm5.625 20.375c-.1875-.1875-.1875-.5 0-.6875 1.5-1.5 2.375-3.5 2.375-5.6875 0-4.375-3.625-8-8-8-4.4375 0-8 3.625-8 8 0 2.1875.8125 4.1875 2.25 5.6875.1875.1875.1875.5 0 .6875s-.5.1875-.6875 0c-1.6875-1.6875-2.5625-3.9375-2.5625-6.375 0-4.9375 4-9 9-9 4.9375 0 9 4.0625 9 9 0 2.4375-.9375 4.6875-2.6875 6.375-.0625.125-.1875.125-.3125.125s-.25 0-.375-.125z" fill="#f8fafc"/></svg>