<svg fill="none" height="33" viewBox="0 0 33 33" width="33" xmlns="http://www.w3.org/2000/svg"><path d="m23.8125 1.5625c1.375-1.3125 3.5625-1.3125 4.9375 0l2.6875 2.6875c1.3125 1.375 1.3125 3.5625 0 4.9375l-19.5625 19.5625c-.75.6875-1.625 1.25-2.5625 1.5l-7.5625 2.25c-.375.0625-.750004 0-1.000004-.25s-.375-.625-.25-1l2.250004-7.5625c.25-.9375.8125-1.8125 1.5-2.5625zm3.5 1.4375c-.5625-.5625-1.5-.5625-2.125 0l-3.375 3.4375 4.75 4.75 3.4375-3.375c.5625-.625.5625-1.5625 0-2.125zm-22.6875 21.25-1.6875 5.8125 5.8125-1.6875c.625-.25 1.25-.5625 1.6875-1.0625l14.6875-14.6875-4.75-4.8125-14.6875 14.75c-.5.4375-.875 1.0625-1.0625 1.6875zm6.6875-22 4.4375 4.4375-1.4375 1.375-2-2-2.125 2.1875c-.375.375-1.0625.375-1.4375 0s-.375-1.0625 0-1.4375l2.1875-2.125-1.0625-1.0625c-.75-.75-2.0625-.75-2.8125 0l-3.5 3.5c-.75.75-.75 2.0625 0 2.8125l4.4375 4.4375-1.375 1.4375-4.4375-4.4375c-1.562504-1.5625-1.562504-4.125 0-5.6875l3.4375-3.4375c1.5625-1.5625 4.125-1.5625 5.6875 0zm10.3125 28.5625-4.4375-4.4375 1.4375-1.375 4.4375 4.4375c.75.75 2.0625.75 2.8125 0l3.5-3.5c.75-.75.75-2.0625 0-2.8125l-1.0625-1.0625-2.125 2.1875c-.375.375-1.0625.375-1.4375 0s-.375-1.0625 0-1.4375l2.1875-2.125-2-2 1.375-1.4375 4.4375 4.4375c1.5625 1.5625 1.5625 4.125 0 5.6875l-3.4375 3.4375c-1.5625 1.5625-4.125 1.5625-5.6875 0z" fill="#f8fafc"/></svg>