<svg fill="none" height="28" viewBox="0 0 28 28" width="28" xmlns="http://www.w3.org/2000/svg"><path d="m26 0c1.0625 0 2 .9375 2 2.0625v23.9375c0 1.125-.9375 2-2 2h-24.0625c-1.0625 0-1.9375-.875-1.9375-2v-23.9375c0-1.125.875-2.0625 1.9375-2.0625zm-17.5625 24v-13.3125h-4.125v13.3125zm-2.0625-15.1875c1.3125 0 2.375-1.0625 2.375-2.375s-1.0625-2.4375-2.375-2.4375c-1.375 0-2.4375 1.125-2.4375 2.4375s1.0625 2.375 2.4375 2.375zm17.625 15.1875v-7.3125c0-3.5625-.8125-6.375-5-6.375-2 0-3.375 1.125-3.9375 2.1875h-.0625v-1.8125h-3.9375v13.3125h4.125v-6.5625c0-1.75.3125-3.4375 2.5-3.4375 2.125 0 2.125 2 2.125 3.5v6.5z" fill="#f8fafc"/></svg>