<svg width="28" height="28" viewBox="0 0 28 28" fill="none" xmlns="http://www.w3.org/2000/svg">
<path d="M26 0C27.0625 0 28 0.9375 28 2.0625V26C28 27.125 27.0625 28 26 28H1.9375C0.875 28 0 27.125 0 26V2.0625C0 0.9375 0.875 0 1.9375 0H26ZM8.4375 24V10.6875H4.3125V24H8.4375ZM6.375 8.8125C7.6875 8.8125 8.75 7.75 8.75 6.4375C8.75 5.125 7.6875 4 6.375 4C5 4 3.9375 5.125 3.9375 6.4375C3.9375 7.75 5 8.8125 6.375 8.8125ZM24 24V16.6875C24 13.125 23.1875 10.3125 19 10.3125C17 10.3125 15.625 11.4375 15.0625 12.5H15V10.6875H11.0625V24H15.1875V17.4375C15.1875 15.6875 15.5 14 17.6875 14C19.8125 14 19.8125 16 19.8125 17.5V24H24Z" fill="#F8FAFC"/>
</svg>
