<svg fill="none" height="33" viewBox="0 0 33 33" width="33" xmlns="http://www.w3.org/2000/svg"><path d="m14.875 23.0625-.0625.25c-.1875.75-.75 1.375-1.5 1.5625l-.25.0625c-.3125.0625-.4375.125-.5625.1875l-.0625 6.875c0 .1875-.0625.375-.1875.4375-.1875.125-.375.125-.5 0l-3.24999-1.8125-3.3125 1.8125c-.0625.0625-.125.0625-.1875.0625-.125 0-.1875 0-.3125-.0625s-.1875-.25-.1875-.4375v-6.875c-.1875-.0625-.3125-.125-.625-.1875l-.1875-.0625c-.8125-.1875-1.375-.8125-1.5625-1.5625l-.0625-.25c-.25-.75-.25-.75-.8125-1.375l-.125-.125c-.562496-.5625-.812496-1.375-.562496-2.1875v-.125c.125-.375.1875-.5625.1875-.75 0-.125-.0625-.3125-.1875-.6875v-.125c-.25-.8125 0-1.625.562496-2.1875l.1875-.1875c.5-.5625.5-.5625.75-1.3125l.0625-.25c.1875-.75.75-1.375 1.5625-1.5625l.1875-.0625c.75-.1875.75-.1875 1.3125-.75l.1875-.1875c.5625-.5625 1.375-.8125 2.125-.5625l.1875.0625c.75.1875.75.1875 1.5625 0l.1875-.0625c.74999-.25 1.56249 0 2.12499.5625l.1875.1875c.5625.5625.5625.5625 1.3125.75l.25.0625c.75.1875 1.3125.8125 1.5 1.5625l.0625.25c.25.75.25.75.8125 1.375l.125.125c.5625.5625.8125 1.375.5625 2.1875v.125c-.125.3125-.1875.5625-.1875.75 0 .125.0625.375.1875.6875v.125c.25.8125 0 1.625-.5625 2.1875l-.1875.1875c-.5.5625-.5.5625-.75 1.3125zm-3.4375 8.125v-5.25c-.4375.375-.9375.625-1.49999.625-.1875 0-.375-.0625-.5625-.125l-.1875-.0625c-.75-.1875-.75-.1875-1.5 0l-.25.0625c-.6875.1875-1.5 0-2-.5v5.25l2.75-1.5625c.125-.125.3125-.125.5 0zm2.5-8.375c.25-1 .3125-1.0625 1-1.8125l.1875-.125c.3125-.3125.4375-.8125.3125-1.25l-.0625-.125c-.125-.4375-.1875-.6875-.1875-1 0-.25.0625-.5.1875-.9375l.0625-.125c.125-.4375 0-.9375-.3125-1.25l-.1875-.125c-.6875-.75-.75-.8125-1-1.8125l-.0625-.25c-.125-.375-.4375-.75-.875-.875l-.1875-.0625c-1-.25-1.0625-.3125-1.75-1l-.1875-.1875c-.3125-.3125-.75-.4375-1.18749-.3125l-.1875.0625c-1 .25-1.0625.25-2.0625 0l-.1875-.0625c-.4375-.125-.875 0-1.1875.3125l-.1875.1875c-.6875.6875-.75.75-1.75 1l-.1875.0625c-.4375.125-.75.5-.875.875l-.0625.25c-.25 1-.3125 1.0625-1 1.8125l-.1875.125c-.3125.3125-.4375.8125-.3125 1.25l.0625.125c.125.4375.1875.6875.1875.9375 0 .3125-.0625.5625-.1875 1l-.0625.125c-.125.4375 0 .9375.3125 1.25l.1875.125c.6875.75.75.8125 1 1.8125l.0625.1875c.125.4375.4375.8125.875.9375l.1875.0625c1 .25 1.0625.3125 1.8125 1l.125.1875c.3125.3125.75.4375 1.1875.3125l.1875-.0625c.5-.125.75-.1875 1.0625-.1875.25 0 .5.0625 1 .1875l.1875.0625c.43749.125.87499 0 1.18749-.3125l.1875-.1875c.6875-.6875.75-.75 1.75-1l.1875-.0625c.4375-.125.75-.5.875-.875zm17.9375-12.875c.375.375.625.875.5625 1.4375v17.0625c0 2.1875-1.8125 4-4 4h-13.4375c-.3125 0-.5625-.25-.5625-.5 0-.3125.25-.5.5625-.5h13.4375c1.625 0 3-1.375 3-3v-17h-7.5c-1.375 0-2.5-1.125-2.5-2.5v-7.4375h-9c-1.6875 0-2.99999 1.3125-2.99999 3v3.5c0 .25-.25.5-.5.5-.3125 0-.5-.25-.5-.5v-3.5c0-2.1875 1.74999-4 3.99999-4h9.1875c.5625 0 1.0625.25 1.4375.625zm-7.9375.5625v.0625h7.0625l-8.5625-8.625v7.0625c0 .8125.625 1.5 1.5 1.5z" fill="#f8fafc"/></svg>