<svg width="32" height="24" viewBox="0 0 32 24" fill="none" xmlns="http://www.w3.org/2000/svg">
<path d="M0 4C0 1.8125 1.75 0 4 0H28C30.1875 0 32 1.8125 32 4V20C32 22.25 30.1875 24 28 24H4C1.75 24 0 22.25 0 20V4ZM1 4V5.8125L13.75 16.125C15.0625 17.125 16.875 17.125 18.1875 16.125L31 5.8125V4C31 2.375 29.625 1 28 1H3.9375C2.3125 1 0.9375 2.375 0.9375 4H1ZM1 7.0625V20C1 21.6875 2.3125 23 4 23H28C29.625 23 31 21.6875 31 20V7.0625L18.8125 16.875C17.125 18.25 14.8125 18.25 13.125 16.875L1 7.0625Z" fill="#F8FAFC"/>
</svg>
