<svg fill="none" height="31" viewBox="0 0 33 31" width="33" xmlns="http://www.w3.org/2000/svg"><path d="m29.5 6.5c1.625 0 3 1.375 3 3v18c0 1.6875-1.375 3-3 3h-26c-1.6875 0-3-1.3125-3-3v-18c0-1.625 1.3125-3 3-3h5v-3.5c0-1.375 1.0625-2.5 2.5-2.5h11c1.375 0 2.5 1.125 2.5 2.5v3.5zm-20-3.5v3.5h14v-3.5c0-.8125-.6875-1.5-1.5-1.5h-11c-.875 0-1.5.6875-1.5 1.5zm22 24.5v-10h-10v3.5c0 .875-.6875 1.5-1.5 1.5h-7c-.875 0-1.5-.625-1.5-1.5v-3.5h-10v10c0 1.125.875 2 2 2h26c1.0625 0 2-.875 2-2zm-11-10h-8v3.5c0 .3125.1875.5.5.5h7c.25 0 .5-.1875.5-.5zm-19-1h30v-7c0-1.0625-.9375-2-2-2h-26c-1.125 0-2 .9375-2 2z" fill="#f8fafc"/></svg>