<svg fill="none" height="90" viewBox="0 0 182 90" width="182" xmlns="http://www.w3.org/2000/svg" xmlns:xlink="http://www.w3.org/1999/xlink"><linearGradient id="a"><stop offset=".03" stop-color="#64748b" stop-opacity="0"/><stop offset=".16" stop-color="#64748b" stop-opacity=".74"/><stop offset=".275" stop-color="#64748b"/><stop offset=".715" stop-color="#64748b"/><stop offset=".81" stop-color="#64748b" stop-opacity=".75"/><stop offset=".96" stop-color="#64748b" stop-opacity="0"/></linearGradient><linearGradient id="b" gradientUnits="userSpaceOnUse" x1="90.4999" x2="90.4999" xlink:href="#a" y1="90.1494" y2="-2.68505"/><linearGradient id="c" gradientUnits="userSpaceOnUse" x1="124.157" x2="57.3356" xlink:href="#a" y1="79.307" y2="12.4854"/><linearGradient id="d"><stop offset=".03" stop-color="#64748b" stop-opacity="0"/><stop offset=".215" stop-color="#64748b" stop-opacity=".74"/><stop offset=".345" stop-color="#64748b"/><stop offset=".475" stop-color="#64748b"/><stop offset=".625" stop-color="#64748b"/><stop offset=".88" stop-color="#64748b" stop-opacity=".75"/><stop offset="1" stop-color="#64748b" stop-opacity="0"/></linearGradient><linearGradient id="e" gradientUnits="userSpaceOnUse" x1="144.231" x2="98.6277" xlink:href="#d" y1="36.8008" y2="82.4037"/><linearGradient id="f" gradientUnits="userSpaceOnUse" x1="141.704" x2="96.9158" xlink:href="#d" y1="53.8258" y2="9.03725"/><linearGradient id="g" gradientUnits="userSpaceOnUse" x1="42.8909" x2="88.4937" xlink:href="#d" y1="34.6793" y2="80.2822"/><linearGradient id="h" gradientUnits="userSpaceOnUse" x1="40.2694" x2="85.8723" xlink:href="#d" y1="52.6091" y2="7.00625"/><linearGradient id="i" gradientUnits="userSpaceOnUse" x1="105" x2="10.5" xlink:href="#a" y1="1.50011" y2="1.50011"/><linearGradient id="j"><stop offset=".03" stop-color="#64748b" stop-opacity="0"/><stop offset=".18" stop-color="#64748b" stop-opacity=".74"/><stop offset=".345" stop-color="#64748b"/><stop offset=".475" stop-color="#64748b"/><stop offset=".625" stop-color="#64748b"/><stop offset=".785" stop-color="#64748b" stop-opacity=".75"/><stop offset=".96" stop-color="#64748b" stop-opacity="0"/></linearGradient><linearGradient id="k" gradientUnits="userSpaceOnUse" x1="76.4999" x2="76.4999" xlink:href="#j" y1="83.053" y2="6.50531"/><linearGradient id="l" gradientUnits="userSpaceOnUse" x1="62.4999" x2="62.4999" xlink:href="#j" y1="81.4337" y2="8.14338"/><linearGradient id="m" gradientUnits="userSpaceOnUse" x1="48.4999" x2="48.4999" xlink:href="#j" y1="79.0048" y2="10.6005"/><linearGradient id="n" gradientUnits="userSpaceOnUse" x1="104.5" x2="104.5" xlink:href="#j" y1="83.053" y2="6.50531"/><linearGradient id="o" gradientUnits="userSpaceOnUse" x1="137.816" x2="50.6816" xlink:href="#j" y1="18.5001" y2="18.5001"/><linearGradient id="p" gradientUnits="userSpaceOnUse" x1="146.627" x2="40.7627" xlink:href="#j" y1="74.5001" y2="74.5001"/><linearGradient id="q" gradientUnits="userSpaceOnUse" x1="159.676" x2="28.5676" xlink:href="#j" y1="60.5001" y2="60.5001"/><linearGradient id="r" gradientUnits="userSpaceOnUse" x1="179.107" x2="8.91073" xlink:href="#a" y1="46.5001" y2="46.5001"/><linearGradient id="s" gradientUnits="userSpaceOnUse" x1="159.676" x2="28.5676" xlink:href="#j" y1="32.5001" y2="32.5001"/><linearGradient id="t" gradientUnits="userSpaceOnUse" x1="118.5" x2="118.5" xlink:href="#j" y1="81.4337" y2="8.14338"/><linearGradient id="u" gradientUnits="userSpaceOnUse" x1="132.5" x2="132.5" xlink:href="#j" y1="79.0048" y2="10.6005"/><clipPath id="v"><path d="m0 0h182v90h-182z"/></clipPath><g clip-path="url(#v)"><path d="m92.5-13v114" stroke="url(#b)"/><path d="m51.3252 3.64645 82.0568 82.05635" stroke="url(#c)"/><path d="m92.5 86.4099 56-56" stroke="url(#e)"/><path d="m93 3 55 55" stroke="url(#f)"/><path d="m92.5 86.4099-56-56" stroke="url(#g)"/><path d="m92 3-56 56" stroke="url(#h)"/><path d="m0-.5h116.045" stroke="url(#i)" transform="matrix(-.707107 .707107 .707107 .707107 134.028 4)"/><path d="m78.5-2v94" stroke="url(#k)"/><path d="m64.5-0v90" stroke="url(#l)"/><path d="m50.5 3v84" opacity=".3" stroke="url(#m)"/><path d="m106.5-2v94" stroke="url(#n)"/><path d="m41 16.5h107" stroke="url(#o)"/><path d="m29 72.5h130" stroke="url(#p)"/><path d="m14 58.5h161" stroke="url(#q)"/><path d="m-10 44.5h209" opacity=".8" stroke="url(#r)"/><path d="m14 30.5h161" stroke="url(#s)"/><path d="m120.5-0v90" stroke="url(#t)"/><path d="m134.5 3v84" opacity=".3" stroke="url(#u)"/><path d="m102.5 55-.69-.724zm-20.5-20.5-.7241-.6898zm.5 20.5.6898-.724zm37.5-10.5c0 15.1878-12.312 27.5-27.5 27.5v2c16.292 0 29.5-13.2076 29.5-29.5zm-27.5-27.5c15.188 0 27.5 12.3122 27.5 27.5h2c0-16.2924-13.208-29.5-29.5-29.5zm-27.5 27.5c0-15.1878 12.3122-27.5 27.5-27.5v-2c-16.2924 0-29.5 13.2076-29.5 29.5zm27.5 27.5c-15.1878 0-27.5-12.3122-27.5-27.5h-2c0 16.2924 13.2076 29.5 29.5 29.5zm13.5-27.5c0 3.8464-1.607 7.3158-4.19 9.776l1.38 1.4481c2.962-2.822 4.81-6.8081 4.81-11.2241zm-13.5-13.5c7.4558 0 13.5 6.0442 13.5 13.5h2c0-8.5604-6.94-15.5-15.5-15.5zm-9.776 4.1898c2.4602-2.5825 5.9296-4.1898 9.776-4.1898v-2c-4.416 0-8.4021 1.8481-11.2241 4.8102zm-3.724 9.3102c0-3.6099 1.4156-6.8871 3.724-9.3102l-1.4481-1.3796c-2.6485 2.7801-4.2759 6.546-4.2759 10.6898zm4.1898 9.776c-2.5825-2.4602-4.1898-5.9296-4.1898-9.776h-2c0 4.416 1.8481 8.4021 4.8102 11.2241zm9.3102 3.724c-3.6099 0-6.8871-1.4156-9.3102-3.724l-1.3796 1.4481c2.7801 2.6485 6.546 4.2759 10.6898 4.2759zm9.31-3.724c-2.4229 2.3084-5.7 3.724-9.31 3.724v2c4.1438 0 7.91-1.6274 10.69-4.2759zm-8.31-24.276v-13.5h-2v13.5zm8.293 25.7071 9.901 9.901 1.414-1.4142-9.901-9.901zm-20.0001-1.4142-9.5 9.5 1.4142 1.4142 9.5-9.5zm.9142-20.5-9.901-9.901-1.4142 1.4142 9.901 9.901z" fill="#fff"/></g></svg>