<svg fill="none" height="90" viewBox="0 0 182 90" width="182" xmlns="http://www.w3.org/2000/svg" xmlns:xlink="http://www.w3.org/1999/xlink"><linearGradient id="a"><stop offset=".03" stop-color="#64748b" stop-opacity="0"/><stop offset=".16" stop-color="#64748b" stop-opacity=".74"/><stop offset=".275" stop-color="#64748b"/><stop offset=".715" stop-color="#64748b"/><stop offset=".81" stop-color="#64748b" stop-opacity=".75"/><stop offset=".96" stop-color="#64748b" stop-opacity="0"/></linearGradient><linearGradient id="b" gradientUnits="userSpaceOnUse" x1="90.4999" x2="90.4999" xlink:href="#a" y1="90.1494" y2="-2.68505"/><linearGradient id="c"><stop offset=".03" stop-color="#64748b" stop-opacity="0"/><stop offset=".18" stop-color="#64748b" stop-opacity=".74"/><stop offset=".345" stop-color="#64748b"/><stop offset=".475" stop-color="#64748b"/><stop offset=".625" stop-color="#64748b"/><stop offset=".785" stop-color="#64748b" stop-opacity=".75"/><stop offset=".96" stop-color="#64748b" stop-opacity="0"/></linearGradient><linearGradient id="d" gradientUnits="userSpaceOnUse" x1="62.4999" x2="62.4999" xlink:href="#c" y1="81.4337" y2="8.14338"/><linearGradient id="e" gradientUnits="userSpaceOnUse" x1="137.816" x2="50.6816" xlink:href="#c" y1="18.5001" y2="18.5001"/><linearGradient id="f" gradientUnits="userSpaceOnUse" x1="146.627" x2="40.7627" xlink:href="#c" y1="74.5001" y2="74.5001"/><linearGradient id="g" gradientUnits="userSpaceOnUse" x1="159.676" x2="28.5676" xlink:href="#c" y1="60.5001" y2="60.5001"/><linearGradient id="h" gradientUnits="userSpaceOnUse" x1="179.107" x2="8.91073" xlink:href="#a" y1="46.5001" y2="46.5001"/><linearGradient id="i" gradientUnits="userSpaceOnUse" x1="159.676" x2="28.5676" xlink:href="#c" y1="32.5001" y2="32.5001"/><linearGradient id="j" gradientUnits="userSpaceOnUse" x1="118.5" x2="118.5" xlink:href="#c" y1="81.4337" y2="8.14338"/><linearGradient id="k" gradientUnits="userSpaceOnUse" x1="83.4999" x2="83.4999" xlink:href="#a" y1="79.0048" y2="10.6005"/><linearGradient id="l" gradientUnits="userSpaceOnUse" x1="69.4999" x2="69.4999" xlink:href="#c" y1="79.0048" y2="10.6005"/><linearGradient id="m" gradientUnits="userSpaceOnUse" x1="55.4999" x2="55.4999" xlink:href="#c" y1="79.0048" y2="10.6005"/><linearGradient id="n" gradientUnits="userSpaceOnUse" x1="97.4999" x2="97.4999" xlink:href="#c" y1="79.0048" y2="10.6005"/><linearGradient id="o" gradientUnits="userSpaceOnUse" x1="111.5" x2="111.5" xlink:href="#c" y1="79.0048" y2="10.6005"/><linearGradient id="p" gradientUnits="userSpaceOnUse" x1="125.5" x2="125.5" xlink:href="#c" y1="79.0048" y2="10.6005"/><clipPath id="q"><path d="m0 0h182v90h-182z"/></clipPath><g clip-path="url(#q)"><path d="m92.5-13v114" stroke="url(#b)"/><path d="m64.5-0v90" stroke="url(#d)"/><path d="m41 16.5h107" stroke="url(#e)"/><path d="m29 72.5h130" stroke="url(#f)"/><path d="m14 58.5h161" stroke="url(#g)"/><path d="m-10 44.5h209" opacity=".8" stroke="url(#h)"/><path d="m14 30.5h161" stroke="url(#i)"/><path d="m120.5-0v90" stroke="url(#j)"/><path d="m85.5 3v84" stroke="url(#k)"/><path d="m71.5 3v84" stroke="url(#l)"/><path d="m57.5 3v84" stroke="url(#m)"/><path d="m99.5 3v84" stroke="url(#n)"/><path d="m113.5 3v84" stroke="url(#o)"/><path d="m127.5 3v84" opacity=".3" stroke="url(#p)"/><path d="m121.5 60c0-.5523-.448-1-1-1s-1 .4477-1 1zm0 10c0-.5523-.448-1-1-1s-1 .4477-1 1zm-10.5-26.5608v-1h-.035l-.035.0024zm8.5 27.1608c0 .5523.448 1 1 1s1-.4477 1-1zm0-4.3c0 .5523.448 1 1 1s1-.4477 1-1zm-59.5-6.3h9v-2h-9zm10 1v9h2v-9zm-1 10h-9v2h9zm-10-1v-9h-2v9zm1 1c-.5523 0-1-.4477-1-1h-2c0 1.6569 1.3431 3 3 3zm10-1c0 .5523-.4477 1-1 1v2c1.6569 0 3-1.3431 3-3zm-1-10c.5523 0 1 .4477 1 1h2c0-1.6569-1.3431-3-3-3zm-9-2c-1.6569 0-3 1.3431-3 3h2c0-.5523.4477-1 1-1zm28 2h9v-2h-9zm10 1v9h2v-9zm-1 10h-9v2h9zm-10-1v-9h-2v9zm1 1c-.5523 0-1-.4477-1-1h-2c0 1.6569 1.3431 3 3 3zm10-1c0 .5523-.4477 1-1 1v2c1.6569 0 3-1.3431 3-3zm-1-10c.5523 0 1 .4477 1 1h2c0-1.6569-1.3431-3-3-3zm-9-2c-1.6569 0-3 1.3431-3 3h2c0-.5523.4477-1 1-1zm0-40h9v-2h-9zm10 1v9h2v-9zm-1 10h-9v2h9zm-10-1v-9h-2v9zm1 1c-.5523 0-1-.4477-1-1h-2c0 1.6569 1.3431 3 3 3zm10-1c0 .5523-.4477 1-1 1v2c1.6569 0 3-1.3431 3-3zm-1-10c.5523 0 1 .4477 1 1h2c0-1.6569-1.3431-3-3-3zm-9-2c-1.6569 0-3 1.3431-3 3h2c0-.5523.4477-1 1-1zm1 14v4.705h2v-4.705zm-8 13c-.0097 0-.0194 0-.0291 0s-.0194 0-.0291 0c-.0096 0-.0193 0-.029 0-.0096 0-.0193 0-.0289 0-.0097 0-.0193 0-.029 0-.0096 0-.0192 0-.0288 0-.0097 0-.0193 0-.0289 0s-.0192 0-.0288 0-.0191 0-.0287 0-.0192 0-.0287 0c-.0096 0-.0191 0-.0287 0-.0095 0-.0191 0-.0286 0s-.019 0-.0285 0c-.0096 0-.0191 0-.0286 0s-.019 0-.0284 0c-.0095 0-.019 0-.0285 0-.0094 0-.0189 0-.0284 0-.0094 0-.0189 0-.0283 0s-.0189 0-.0283 0-.0188 0-.0282 0-.0188 0-.0282 0-.0188 0-.0282 0-.0187 0-.0281 0-.0187 0-.0281 0c-.0093 0-.0187 0-.028 0s-.0187 0-.028 0-.0186 0-.0279 0-.0186 0-.0279 0-.0186 0-.0278 0c-.0093 0-.0186 0-.0278 0-.0093 0-.0185 0-.0278 0-.0092 0-.0184 0-.0277 0-.0092 0-.0184 0-.0276 0s-.0184 0-.0276 0-.0184 0-.0276 0-.0183 0-.0275 0-.0183 0-.0275 0c-.0091 0-.0183 0-.0274 0s-.0183 0-.0274 0-.0182 0-.0273 0-.0182 0-.0273 0-.0182 0-.0272 0c-.0091 0-.0182 0-.0272 0-.0091 0-.0181 0-.0272 0-.009 0-.018 0-.0271 0-.009 0-.018 0-.027 0s-.018 0-.027 0-.018 0-.027 0-.0179 0-.0269 0-.0179 0-.0269 0c-.0089 0-.0179 0-.0268 0s-.0178 0-.0268 0c-.0089 0-.0178 0-.0267 0s-.0178 0-.0267 0c-.0088 0-.0177 0-.0266 0s-.0177 0-.0266 0c-.0088 0-.0177 0-.0265 0-.0089 0-.0177 0-.0265 0s-.0176 0-.0264 0c-.0089 0-.0176 0-.0264 0s-.0176 0-.0264 0-.0175 0-.0263 0c-.0087 0-.0175 0-.0262 0-.0088 0-.0175 0-.0262 0-.0088 0-.0175 0-.0262 0s-.0174 0-.0261 0-.0174 0-.0261 0-.0173 0-.026 0-.0173 0-.026 0c-.0086 0-.0172 0-.0259 0-.0086 0-.0172 0-.0258 0-.0087 0-.0173 0-.0259 0s-.0172 0-.0257 0c-.0086 0-.0172 0-.0258 0-.0085 0-.0171 0-.0257 0-.0085 0-.017 0-.0256 0-.0085 0-.017 0-.0256 0-.0085 0-.017 0-.0255 0s-.017 0-.0255 0-.017 0-.0254 0c-.0085 0-.017 0-.0254 0-.0085 0-.0169 0-.0254 0-.0084 0-.0168 0-.0253 0-.0084 0-.0168 0-.0252 0s-.0168 0-.0252 0-.0168 0-.0251 0c-.0084 0-.0168 0-.0251 0-.0084 0-.0167 0-.0251 0-.0083 0-.0167 0-.025 0s-.0166 0-.0249 0c-.0084 0-.0167 0-.025 0-.0082 0-.0165 0-.0248 0s-.0166 0-.0248 0c-.0083 0-.0165 0-.0248 0-.0082 0-.0165 0-.0247 0s-.0164 0-.0246 0c-.0083 0-.0165 0-.0246 0-.0082 0-.0164 0-.0246 0s-.0164 0-.0245 0c-.0082 0-.0163 0-.0245 0-.0081 0-.0163 0-.0244 0s-.0163 0-.0244 0-.0162 0-.0243 0-.0162 0-.0242 0c-.0081 0-.0162 0-.0243 0-.008 0-.0161 0-.0241 0-.0081 0-.0161 0-.0241 0-.0081 0-.0161 0-.0241 0s-.016 0-.024 0-.016 0-.024 0-.0159 0-.0239 0-.0159 0-.0239 0c-.0079 0-.0159 0-.0238 0s-.0159 0-.0238 0-.0158 0-.0237 0-.0158 0-.0237 0c-.0078 0-.0157 0-.0236 0-.0078 0-.0157 0-.0235 0-.0079 0-.0157 0-.0236 0-.0078 0-.0156 0-.0234 0s-.0156 0-.0234 0-.0156 0-.0234 0-.0156 0-.0233 0c-.0078 0-.0155 0-.0233 0-.0077 0-.0155 0-.0232 0s-.0155 0-.0232 0-.0154 0-.0231 0-.0154 0-.0231 0c-.0076 0-.0153 0-.023 0-.0076 0-.0153 0-.0229 0-.0077 0-.0153 0-.0229 0-.0077 0-.0153 0-.0229 0s-.0152 0-.0228 0-.0152 0-.0228 0-.0151 0-.0227 0c-.0075 0-.0151 0-.0226 0-.0076 0-.0151 0-.0226 0-.0076 0-.0151 0-.0226 0s-.015 0-.0225 0-.015 0-.0225 0c-.0074 0-.0149 0-.0224 0-.0074 0-.0149 0-.0223 0-.0075 0-.0149 0-.0223 0s-.0149 0-.0223 0-.0148 0-.0222 0c-.0073 0-.0147 0-.0221 0s-.0147 0-.0221 0-.0147 0-.022 0c-.0074 0-.0147 0-.022 0-.0074 0-.0147 0-.022 0s-.0146 0-.0219 0c-.0072 0-.0145 0-.0218 0s-.0145 0-.0218 0c-.0072 0-.0145 0-.0217 0s-.0145 0-.0217 0-.0144 0-.0216 0-.0144 0-.0216 0-.0143 0-.0215 0-.0143 0-.0215 0c-.0071 0-.0143 0-.0214 0s-.0143 0-.0214 0-.0142 0-.0213 0-.0142 0-.0212 0c-.0071 0-.0142 0-.0213 0-.007 0-.0141 0-.0211 0-.0071 0-.0141 0-.0211 0s-.0141 0-.0211 0-.014 0-.021 0-.0139 0-.0209 0-.014 0-.0209 0c-.007 0-.0139 0-.0209 0-.0069 0-.0138 0-.0207 0-.007 0-.0139 0-.0208 0s-.0138 0-.0207 0c-.0068 0-.0137 0-.0206 0s-.0137 0-.0206 0c-.0068 0-.0137 0-.0205 0s-.0137 0-.0205 0-.0136 0-.0204 0-.0136 0-.0204 0c-.0067 0-.0135 0-.0203 0-.0067 0-.0135 0-.0202 0-.0068 0-.0135 0-.0202 0-.0068 0-.0135 0-.0202 0s-.0134 0-.0201 0-.0134 0-.02 0c-.0067 0-.0134 0-.02 0-.0067 0-.0133 0-.02 0-.0066 0-.0132 0-.0198 0-.0067 0-.0133 0-.0199 0s-.0132 0-.0198 0c-.0065 0-.0131 0-.0197 0-.0065 0-.0131 0-.0196 0-.0066 0-.0131 0-.0197 0-.0065 0-.013 0-.0195 0s-.013 0-.0195 0-.013 0-.0195 0-.0129 0-.0194 0-.0129 0-.0193 0c-.0065 0-.0129 0-.0193 0-.0065 0-.0129 0-.0193 0s-.0128 0-.0192 0c-.0063 0-.0127 0-.0191 0s-.0127 0-.0191 0c-.0063 0-.0127 0-.019 0s-.0126 0-.0189 0c-.0064 0-.0127 0-.019 0s-.0125 0-.0188 0-.0126 0-.0188 0c-.0063 0-.0125 0-.0188 0-.0062 0-.0124 0-.0187 0-.0062 0-.0124 0-.0186 0s-.0124 0-.0186 0-.0124 0-.0185 0c-.0062 0-.0123 0-.0185 0-.0061 0-.0123 0-.0184 0s-.0123 0-.0184 0-.0122 0-.0183 0-.0122 0-.0182 0c-.0061 0-.0122 0-.0182 0-.0061 0-.0122 0-.0182 0s-.0121 0-.0181 0-.012 0-.018 0-.012 0-.018 0-.012 0-.0179 0c-.006 0-.0119 0-.0179 0-.0059 0-.0119 0-.0178 0s-.0119 0-.0178 0-.0118 0-.0177 0-.0117 0-.0176 0-.0117 0-.0176 0-.0117 0-.0175 0c-.0059 0-.0117 0-.0175 0s-.0116 0-.0174 0-.0116 0-.0174 0-.0116 0-.0173 0c-.0058 0-.0115 0-.0173 0-.0057 0-.0115 0-.0172 0s-.0114 0-.0171 0-.0114 0-.0171 0-.0114 0-.017 0c-.0057 0-.0114 0-.017 0-.0057 0-.0113 0-.0169 0-.0057 0-.0113 0-.0169 0s-.0112 0-.0168 0-.0112 0-.0168 0c-.0055 0-.0111 0-.0167 0-.0055 0-.0111 0-.0166 0s-.0111 0-.0166 0-.011 0-.0165 0-.011 0-.0165 0c-.0054 0-.0109 0-.0164 0-.0054 0-.0109 0-.0163 0-.0055 0-.0109 0-.0163 0-.0055 0-.0109 0-.0163 0s-.0108 0-.0162 0c-.0053 0-.0107 0-.0161 0s-.0107 0-.0161 0c-.0053 0-.0106 0-.016 0-.0053 0-.0106 0-.0159 0s-.0106 0-.0159 0-.0106 0-.0159 0c-.0052 0-.0105 0-.0158 0-.0052 0-.0105 0-.0157 0s-.0104 0-.0157 0c-.0052 0-.0104 0-.0156 0s-.0104 0-.0155 0c-.0052 0-.0104 0-.0155 0-.0052 0-.0103 0-.0155 0-.0051 0-.0102 0-.0154 0-.0051 0-.0102 0-.0153 0s-.0102 0-.0152 0c-.0051 0-.0102 0-.0153 0-.005 0-.0101 0-.0151 0-.0051 0-.0101 0-.0151 0s-.01 0-.015 0-.01 0-.015 0-.01 0-.0149 0c-.005 0-.01 0-.0149 0-.005 0-.0099 0-.0148 0s-.0099 0-.0148 0-.0098 0-.0147 0c-.0048 0-.0097 0-.0146 0s-.0097 0-.0146 0c-.0048 0-.0096 0-.0145 0-.0048 0-.0096 0-.0144 0s-.0096 0-.0144 0-.0096 0-.0144 0c-.0047 0-.0095 0-.0143 0-.0047 0-.0094 0-.0142 0-.0047 0-.0094 0-.0141 0-.0048 0-.0095 0-.0142 0-.0046 0-.0093 0-.014 0s-.0093 0-.014 0c-.0046 0-.0093 0-.0139 0-.0047 0-.0093 0-.0139 0s-.0092 0-.0138 0-.0092 0-.0138 0c-.0045 0-.0091 0-.0137 0-.0045 0-.0091 0-.0136 0s-.009 0-.0136 0c-.0045 0-.009 0-.0135 0s-.009 0-.0134 0c-.0045 0-.009 0-.0134 0-.0045 0-.0089 0-.0134 0-.0044 0-.0088 0-.0133 0-.0044 0-.0088 0-.0132 0s-.0088 0-.0131 0c-.0044 0-.0088 0-.0131 0-.0044 0-.0088 0-.0131 0s-.0087 0-.013 0-.0086 0-.0129 0-.0086 0-.0129 0c-.0042 0-.0085 0-.0128 0-.0042 0-.0085 0-.0127 0-.0043 0-.0085 0-.0127 0s-.0084 0-.0126 0-.0084 0-.0126 0-.0083 0-.0125 0-.0083 0-.0124 0c-.0042 0-.0083 0-.0124 0-.0042 0-.0083 0-.0124 0s-.0081 0-.0122 0-.0082 0-.0122 0c-.0041 0-.0081 0-.0122 0-.004 0-.008 0-.0121 0-.004 0-.008 0-.012 0s-.008 0-.012 0c-.0039 0-.0079 0-.0119 0-.0039 0-.0079 0-.0118 0s-.0079 0-.0118 0-.0078 0-.0117 0-.0078 0-.0117 0c-.0038 0-.0077 0-.0116 0-.0038 0-.0077 0-.0115 0s-.0077 0-.0115 0-.0076 0-.0114 0-.0076 0-.0114 0c-.0037 0-.0075 0-.0113 0-.0037 0-.0075 0-.0112 0s-.0075 0-.0112 0-.0074 0-.0111 0-.0074 0-.0111 0c-.0036 0-.0073 0-.0109 0-.0037 0-.0073 0-.011 0-.0036 0-.0072 0-.0108 0-.0037 0-.0073 0-.0109 0-.0035 0-.0071 0-.0107 0s-.0071 0-.0107 0c-.0035 0-.0071 0-.0106 0s-.0071 0-.0106 0-.007 0-.0105 0-.007 0-.0104 0c-.0035 0-.007 0-.0104 0-.0035 0-.0069 0-.0103 0s-.0069 0-.0103 0-.0068 0-.0102 0-.0067 0-.0101 0-.0067 0-.0101 0c-.0033 0-.0067 0-.01 0s-.0066 0-.0099 0-.0066 0-.0099 0-.0066 0-.0098 0c-.0033 0-.0065 0-.0098 0-.0032 0-.0065 0-.0097 0s-.0064 0-.0096 0-.0064 0-.0096 0-.0064 0-.0095 0c-.0032 0-.0063 0-.0095 0-.0031 0-.0062 0-.0093 0-.0032 0-.0063 0-.0094 0s-.0062 0-.0092 0c-.0031 0-.0062 0-.0092 0-.0031 0-.0061 0-.0092 0-.003 0-.006 0-.009 0-.0031 0-.0061 0-.0091 0-.0029 0-.0059 0-.0089 0s-.0059 0-.0089 0c-.0029 0-.0059 0-.0088 0s-.0059 0-.0088 0-.0058 0-.0087 0-.0057 0-.0086 0-.0057 0-.0086 0c-.0028 0-.0057 0-.0085 0s-.0056 0-.0084 0-.0056 0-.0084 0-.0056 0-.0083 0c-.0028 0-.0055 0-.0083 0-.0027 0-.0055 0-.0082 0s-.0054 0-.0081 0-.0054 0-.0081 0-.0053 0-.008 0c-.0026 0-.0053 0-.0079 0s-.0053 0-.0079 0-.0052 0-.0078 0-.0052 0-.0077 0c-.0026 0-.0052 0-.0077 0-.0026 0-.0051 0-.0077 0-.0025 0-.005 0-.0075 0s-.005 0-.0075 0-.005 0-.0074 0c-.0025 0-.005 0-.0074 0s-.0049 0-.0073 0-.0048 0-.0072 0-.0048 0-.0072 0-.0048 0-.0071 0c-.0024 0-.0047 0-.0071 0-.0023 0-.0046 0-.0069 0-.0024 0-.0047 0-.007 0-.0022 0-.0045 0-.0068 0s-.0045 0-.0068 0c-.0022 0-.0045 0-.0067 0s-.0045 0-.0067 0-.0044 0-.0066 0-.0043 0-.0065 0-.0043 0-.0065 0c-.0021 0-.0042 0-.0064 0-.0021 0-.0042 0-.0063 0s-.0042 0-.0063 0c-.002 0-.0041 0-.0062 0-.002 0-.0041 0-.0061 0-.0021 0-.0041 0-.0061 0s-.004 0-.006 0-.004 0-.0059 0c-.002 0-.004 0-.0059 0-.002 0-.0039 0-.0058 0-.002 0-.0039 0-.0058 0s-.0038 0-.0057 0-.0037 0-.0056 0-.0037 0-.0056 0c-.0018 0-.0036 0-.0054 0-.0019 0-.0037 0-.0055 0s-.0036 0-.0053 0c-.0018 0-.0036 0-.0053 0-.0018 0-.0035 0-.0052 0-.0018 0-.0035 0-.0052 0s-.0034 0-.0051 0-.0034 0-.005 0c-.0017 0-.0034 0-.005 0s-.0033 0-.0049 0-.0032 0-.0048 0-.0032 0-.0048 0-.0031 0-.0047 0-.0031 0-.0046 0c-.0016 0-.0031 0-.0046 0s-.003 0-.0045 0-.003 0-.0044 0c-.0015 0-.003 0-.0044 0-.0015 0-.0029 0-.0043 0s-.0029 0-.0043 0-.0028 0-.0041 0c-.0014 0-.0028 0-.0041 0-.0014 0-.0027 0-.0041 0-.0013 0-.0026 0-.004 0-.0013 0-.0026 0-.0039 0s-.0025 0-.0038 0-.0025 0-.0038 0c-.0012 0-.0025 0-.0037 0s-.0024 0-.0036 0-.0024 0-.0036 0-.0023 0-.0035 0-.0023 0-.0034 0c-.0012 0-.0023 0-.0034 0s-.0022 0-.0033 0-.0022 0-.0033 0c-.001 0-.0021 0-.0031 0-.0011 0-.0021 0-.0031 0-.0011 0-.0021 0-.0031 0s-.002 0-.0029 0c-.001 0-.002 0-.0029 0-.001 0-.0019 0-.0029 0-.0009 0-.0018 0-.0027 0-.001 0-.0019 0-.0027 0-.0009 0-.0018 0-.0027 0-.0008 0-.0017 0-.0025 0-.0009 0-.0017 0-.0025 0-.0009 0-.0017 0-.0025 0s-.0016 0-.0023 0c-.0008 0-.0016 0-.0023 0-.0008 0-.0015 0-.0023 0-.0007 0-.0014 0-.0021 0s-.0014 0-.0021 0-.0014 0-.002 0c-.0007 0-.0014 0-.002 0s-.0013 0-.0019 0-.0012 0-.0018 0-.0012 0-.0018 0c-.0005 0-.0011 0-.0016 0-.0006 0-.0011 0-.0017 0-.0005 0-.001 0-.0015 0s-.001 0-.0015 0-.0009 0-.0014 0-.0009 0-.0013 0c-.0005 0-.0009 0-.0013 0s-.0008 0-.0012 0-.0008 0-.0012 0c-.0003 0-.0007 0-.001 0-.0004 0-.0007 0-.001 0s-.0007 0-.001 0-.0005 0-.0008 0-.0006 0-.0008 0c-.0003 0-.0005 0-.0007 0-.0003 0-.0005 0-.0007 0s-.0004 0-.0006 0-.0003 0-.0005 0-.0003 0-.0005 0c-.0001 0-.0002 0-.0003 0s-.0003 0-.0003 0c-.0001 0-.0002 0-.0003 0s-.0001 0-.0002 0c0 0 0 0-.0001 0v1 1h.0001.0002.0003.0003.0003.0005.0005.0006.0007.0007.0008.0008.001.001.001.0012.0012.0013.0013.0014.0015.0015.0017.0016.0018.0018.0019.002.002.0021.0021.0023.0023.0023.0025.0025.0025.0027.0027.0027.0029.0029.0029.0031.0031.0031.0033.0033.0034.0034.0035.0036.0036.0037.0038.0038.0039.004.0041.0041.0041.0043.0043.0044.0044.0045.0046.0046.0047.0048.0048.0049.005.005.0051.0052.0052.0053.0053.0055.0054.0056.0056.0057.0058.0058.0059.0059.006.0061.0061.0062.0063.0063.0064.0065.0065.0066.0067.0067.0068.0068.007.0069.0071.0071.0072.0072.0073.0074.0074.0075.0075.0077.0077.0077.0078.0079.0079.008.0081.0081.0082.0083.0083.0084.0084.0085.0086.0086.0087.0088.0088.0089.0089.0091.009.0092.0092.0092.0094.0093.0095.0095.0096.0096.0097.0098.0098.0099.0099.01.0101.0101.0102.0103.0103.0104.0104.0105.0106.0106.0107.0107.0109.0108.011.0109.0111.0111.0112.0112.0113.0114.0114.0115.0115.0116.0117.0117.0118.0118.0119.012.012.0121.0122.0122.0122.0124.0124.0124.0125.0126.0126.0127.0127.0128.0129.0129.013.0131.0131.0131.0132.0133.0134.0134.0134.0135.0136.0136.0137.0138.0138.0139.0139.014.014.0142.0141.0142.0143.0144.0144.0144.0145.0146.0146.0147.0148.0148.0149.0149.015.015.0151.0151.0153.0152.0153.0154.0155.0155.0155.0156.0157.0157.0158.0159.0159.0159.016.0161.0161.0162.0163.0163.0163.0164.0165.0165.0166.0166.0167.0168.0168.0169.0169.017.017.0171.0171.0172.0173.0173.0174.0174.0175.0175.0176.0176.0177.0178.0178.0179.0179.018.018.0181.0182.0182.0182.0183.0184.0184.0185.0185.0186.0186.0187.0188.0188.0188.019.0189.019.0191.0191.0192.0193.0193.0193.0194.0195.0195.0195.0197.0196.0197.0198.0199.0198.02.02.02.0201.0202.0202.0202.0203.0204.0204.0205.0205.0206.0206.0207.0208.0207.0209.0209.0209.021.0211.0211.0211.0213.0212.0213.0214.0214.0215.0215.0216.0216.0217.0217.0218.0218.0219.022.022.022.0221.0221.0222.0223.0223.0223.0224.0225.0225.0226.0226.0226.0227.0228.0228.0229.0229.0229.023.0231.0231.0232.0232.0233.0233.0234.0234.0234.0236.0235.0236.0237.0237.0238.0238.0239.0239.024.024.0241.0241.0241.0243.0242.0243.0244.0244.0245.0245.0246.0246.0246.0247.0248.0248.0248.025.0249.025.0251.0251.0251.0252.0252.0253.0254.0254.0254.0255.0255.0256.0256.0257.0258.0257.0259.0258.0259.026.026.0261.0261.0262.0262.0262.0263.0264.0264.0264.0265.0265.0266.0266.0267.0267.0268.0268.0269.0269.027.027.027.0271.0272.0272.0272.0273.0273.0274.0274.0275.0275.0276.0276.0276.0277.0278.0278.0278.0279.0279.028.028.0281.0281.0282.0282.0282.0283.0283.0284.0285.0284.0286.0285.0286.0287.0287.0287.0288.0289.0288.029.0289.029.0291.0291zm-18 9.705v6.295h2v-6.295zm10-9.705c-5.4787 0-10 4.139-10 9.705h2c0-4.3751 3.5375-7.705 8-7.705zm16-8.295c0 4.4605-3.623 8.295-8 8.295v2c5.5641 0 10-4.8143 10-10.295zm1.5-4.2675v28.5065h2v-28.5065zm1 0v28.5065h2v-28.5065zm1 0v28.5065h2v-28.5065zm27 29.5625v6h2v-6zm0 10v.3h2v-.3zm-26.5-40v4.4392h2v-4.4392zm10 15h7v-2h-7zm15 7.4392v3.5608h2v-3.5608zm-8-7.4392c4.505 0 8 3.1037 8 7.4392h2c0-5.6057-4.564-9.4392-10-9.4392zm-17-10.5608c0 5.4435 4.401 10.5608 10 10.5608v-2c-4.3421 0-8-4.0632-8-8.5608zm10.07 10.5584 8-.5609-.14-1.9951-8 .5608zm15.93 7.4416v3.5608h2v-3.5608zm-8-8c4.418 0 8 3.5817 8 8h2c0-5.5229-4.477-10-10-10zm-16-14.4392v4.4392h2v-4.4392zm10 14.4392h8v-2h-8zm16 8v3.5608h2v-3.5608zm-8-8c4.418 0 8 3.5817 8 8h2c0-5.5229-4.477-10-10-10zm-18-10c0 5.5228 4.4772 10 10 10v-2c-4.418 0-8-3.5817-8-8zm25.5 39.5608c-4.694 0-8.5-3.8056-8.5-8.5h-2c0 5.799 4.701 10.5 10.5 10.5zm8.5-8.5c0 4.6944-3.806 8.5-8.5 8.5v2c5.799 0 10.5-4.701 10.5-10.5zm-8.5-8.5c4.694 0 8.5 3.8056 8.5 8.5h2c0-5.799-4.701-10.5-10.5-10.5zm0-2c-5.799 0-10.5 4.701-10.5 10.5h2c0-4.6944 3.806-8.5 8.5-8.5zm1 15.6v-.3h-2v.3zm0-4.3v-.3h-2v.3zm-48.5-22.3c0-1 0-1 0-1v2-2 2s0 0 0-1z" fill="#fff"/></g></svg>