<svg fill="none" height="90" viewBox="0 0 182 90" width="182" xmlns="http://www.w3.org/2000/svg" xmlns:xlink="http://www.w3.org/1999/xlink"><linearGradient id="a"><stop offset=".03" stop-color="#64748b" stop-opacity="0"/><stop offset=".215" stop-color="#64748b" stop-opacity=".74"/><stop offset=".345" stop-color="#64748b"/><stop offset=".475" stop-color="#64748b"/><stop offset=".625" stop-color="#64748b"/><stop offset=".88" stop-color="#64748b" stop-opacity=".75"/><stop offset="1" stop-color="#64748b" stop-opacity="0"/></linearGradient><linearGradient id="b" gradientUnits="userSpaceOnUse" x1="138.731" x2="93.1277" xlink:href="#a" y1="28.3909" y2="73.9937"/><linearGradient id="c" gradientUnits="userSpaceOnUse" x1="125.731" x2="80.1277" xlink:href="#a" y1="20.3909" y2="65.9937"/><linearGradient id="d" gradientUnits="userSpaceOnUse" x1="141.704" x2="96.9158" xlink:href="#a" y1="53.8258" y2="9.03725"/><linearGradient id="e" gradientUnits="userSpaceOnUse" x1="148.704" x2="103.916" xlink:href="#a" y1="53.8258" y2="9.03725"/><linearGradient id="f" gradientUnits="userSpaceOnUse" x1="163.704" x2="118.916" xlink:href="#a" y1="53.8258" y2="9.03725"/><linearGradient id="g"><stop offset=".03" stop-color="#64748b" stop-opacity="0"/><stop offset=".18" stop-color="#64748b" stop-opacity=".74"/><stop offset=".345" stop-color="#64748b"/><stop offset=".475" stop-color="#64748b"/><stop offset=".625" stop-color="#64748b"/><stop offset=".785" stop-color="#64748b" stop-opacity=".75"/><stop offset=".96" stop-color="#64748b" stop-opacity="0"/></linearGradient><linearGradient id="h" gradientUnits="userSpaceOnUse" x1="62.4999" x2="62.4999" xlink:href="#g" y1="81.4337" y2="8.14338"/><linearGradient id="i" gradientUnits="userSpaceOnUse" x1="159.676" x2="28.5676" xlink:href="#g" y1="60.5001" y2="60.5001"/><linearGradient id="j"><stop offset=".03" stop-color="#64748b" stop-opacity="0"/><stop offset=".16" stop-color="#64748b" stop-opacity=".74"/><stop offset=".275" stop-color="#64748b"/><stop offset=".715" stop-color="#64748b"/><stop offset=".81" stop-color="#64748b" stop-opacity=".75"/><stop offset=".96" stop-color="#64748b" stop-opacity="0"/></linearGradient><linearGradient id="k" gradientUnits="userSpaceOnUse" x1="179.107" x2="8.91073" xlink:href="#j" y1="46.5001" y2="46.5001"/><linearGradient id="l" gradientUnits="userSpaceOnUse" x1="179.107" x2="8.91073" xlink:href="#j" y1="39.5001" y2="39.5001"/><linearGradient id="m" gradientUnits="userSpaceOnUse" x1="179.107" x2="8.91073" xlink:href="#j" y1="53.5001" y2="53.5001"/><linearGradient id="n" gradientUnits="userSpaceOnUse" x1="159.676" x2="28.5676" xlink:href="#g" y1="32.5001" y2="32.5001"/><linearGradient id="o" gradientUnits="userSpaceOnUse" x1="159.676" x2="28.5676" xlink:href="#g" y1="25.5001" y2="25.5001"/><clipPath id="p"><path d="m0 0h182v90h-182z"/></clipPath><g clip-path="url(#p)"><path d="m87 78 56-56" stroke="url(#b)"/><path d="m74 70 56-56" stroke="url(#c)"/><path d="m93 3 55 55" stroke="url(#d)"/><path d="m100 3 55 55" stroke="url(#e)"/><path d="m115 3 55 55" stroke="url(#f)"/><path d="m64.5-0v90" stroke="url(#h)"/><path d="m14 58.5h161" stroke="url(#i)"/><path d="m-10 44.5h209" opacity=".8" stroke="url(#k)"/><path d="m-10 37.5h209" stroke="url(#l)"/><path d="m-10 51.5h209" stroke="url(#m)"/><path d="m14 30.5h161" stroke="url(#n)"/><path d="m14 23.5h161" stroke="url(#o)"/><path d="m113.5 23h-45.5c-1.6569 0-3 1.3432-3 3v1c0 1.6569 1.3431 3 3 3h38.5m-7 7h-31.5c-1.6569 0-3 1.3432-3 3v1c0 1.6569 1.3431 3 3 3h24.5m-4 7h-20.5c-1.6569 0-3 1.3432-3 3v1c0 1.6569 1.3431 3 3 3h18m39.801-38.7048c1.857-1.8587 3.944-.8999 5.802.9588l2.897 2.8996c1.857 1.8588 2.816 3.9483.959 5.807l-3.044 3.0459c-.781.7817-2.049.7817-2.83-.0001l-6.83-6.8359c-.781-.781-.781-2.0466 0-2.8275zm-19.279 38.619 19.417-19.4281c.78-.7809.78-2.0465 0-2.8275l-6.831-6.8359c-.781-.7817-2.048-.7818-2.829-.0001l-19.4154 19.4262c-.7429.7435-1.3373 1.71-1.6344 2.7509l-2.6746 8.9963c-.1373.5496-.0209 1.1627.4079 1.6047.0714.0735.144.1462.2175.2175.4416.4288 1.0542.5401 1.6034.334l8.9896-2.6023c1.04-.2974 2.006-.8922 2.749-1.6357z" stroke="#fff" stroke-linecap="round" stroke-width="2"/></g></svg>