<svg fill="none" height="90" viewBox="0 0 182 90" width="182" xmlns="http://www.w3.org/2000/svg" xmlns:xlink="http://www.w3.org/1999/xlink"><linearGradient id="a"><stop offset=".03" stop-color="#64748b" stop-opacity="0"/><stop offset=".16" stop-color="#64748b" stop-opacity=".74"/><stop offset=".275" stop-color="#64748b"/><stop offset=".715" stop-color="#64748b"/><stop offset=".81" stop-color="#64748b" stop-opacity=".75"/><stop offset=".96" stop-color="#64748b" stop-opacity="0"/></linearGradient><linearGradient id="b" gradientUnits="userSpaceOnUse" x1="90.4999" x2="90.4999" xlink:href="#a" y1="90.1494" y2="-2.68505"/><linearGradient id="c" gradientUnits="userSpaceOnUse" x1="124.157" x2="57.3356" xlink:href="#a" y1="79.307" y2="12.4854"/><linearGradient id="d"><stop offset=".03" stop-color="#64748b" stop-opacity="0"/><stop offset=".215" stop-color="#64748b" stop-opacity=".74"/><stop offset=".345" stop-color="#64748b"/><stop offset=".475" stop-color="#64748b"/><stop offset=".625" stop-color="#64748b"/><stop offset=".88" stop-color="#64748b" stop-opacity=".75"/><stop offset="1" stop-color="#64748b" stop-opacity="0"/></linearGradient><linearGradient id="e" gradientUnits="userSpaceOnUse" x1="138.731" x2="93.1277" xlink:href="#d" y1="28.3909" y2="73.9937"/><linearGradient id="f" gradientUnits="userSpaceOnUse" x1="142.731" x2="97.1277" xlink:href="#d" y1="31.3909" y2="76.9937"/><linearGradient id="g" gradientUnits="userSpaceOnUse" x1="141.704" x2="96.9158" xlink:href="#d" y1="67.8258" y2="23.0372"/><linearGradient id="h" gradientUnits="userSpaceOnUse" x1="141.704" x2="96.9158" xlink:href="#d" y1="60.8258" y2="16.0372"/><linearGradient id="i" gradientUnits="userSpaceOnUse" x1="42.8909" x2="88.4937" xlink:href="#d" y1="34.6793" y2="80.2822"/><linearGradient id="j"><stop offset=".03" stop-color="#64748b" stop-opacity="0"/><stop offset=".18" stop-color="#64748b" stop-opacity=".74"/><stop offset=".345" stop-color="#64748b"/><stop offset=".475" stop-color="#64748b"/><stop offset=".625" stop-color="#64748b"/><stop offset=".785" stop-color="#64748b" stop-opacity=".75"/><stop offset=".96" stop-color="#64748b" stop-opacity="0"/></linearGradient><linearGradient id="k" gradientUnits="userSpaceOnUse" x1="76.4999" x2="76.4999" xlink:href="#j" y1="83.053" y2="6.50531"/><linearGradient id="l" gradientUnits="userSpaceOnUse" x1="48.4999" x2="48.4999" xlink:href="#j" y1="79.0048" y2="10.6005"/><linearGradient id="m" gradientUnits="userSpaceOnUse" x1="137.816" x2="50.6816" xlink:href="#j" y1="18.5001" y2="18.5001"/><linearGradient id="n" gradientUnits="userSpaceOnUse" x1="137.816" x2="50.6816" xlink:href="#j" y1="11.5001" y2="11.5001"/><linearGradient id="o" gradientUnits="userSpaceOnUse" x1="146.627" x2="40.7627" xlink:href="#j" y1="81.5001" y2="81.5001"/><linearGradient id="p" gradientUnits="userSpaceOnUse" x1="154.723" x2="32.5723" xlink:href="#j" y1="67.5001" y2="67.5001"/><linearGradient id="q" gradientUnits="userSpaceOnUse" x1="179.107" x2="8.91073" xlink:href="#a" y1="46.5001" y2="46.5001"/><linearGradient id="r" gradientUnits="userSpaceOnUse" x1="179.107" x2="8.91073" xlink:href="#a" y1="39.5001" y2="39.5001"/><linearGradient id="s" gradientUnits="userSpaceOnUse" x1="159.676" x2="28.5676" xlink:href="#j" y1="25.5001" y2="25.5001"/><linearGradient id="t" gradientUnits="userSpaceOnUse" x1="118.5" x2="118.5" xlink:href="#j" y1="81.4337" y2="8.14338"/><linearGradient id="u" gradientUnits="userSpaceOnUse" x1="132.5" x2="132.5" xlink:href="#j" y1="79.0048" y2="10.6005"/><linearGradient id="v" gradientUnits="userSpaceOnUse" x1="69.4999" x2="69.4999" xlink:href="#j" y1="79.0048" y2="10.6005"/><linearGradient id="w" gradientUnits="userSpaceOnUse" x1="55.4999" x2="55.4999" xlink:href="#j" y1="79.0048" y2="10.6005"/><linearGradient id="x" gradientUnits="userSpaceOnUse" x1="97.4999" x2="97.4999" xlink:href="#j" y1="79.0048" y2="10.6005"/><clipPath id="y"><path d="m0 0h182v90h-182z"/></clipPath><g clip-path="url(#y)"><path d="m92.5-13v114" stroke="url(#b)"/><path d="m51.3252 3.64645 82.0568 82.05635" stroke="url(#c)"/><path d="m87 78 56-56" stroke="url(#e)"/><path d="m91 81 56-56" stroke="url(#f)"/><path d="m93 17 55 55" stroke="url(#g)"/><path d="m93 10 55 55" stroke="url(#h)"/><path d="m92.5 86.4099-56-56" stroke="url(#i)"/><path d="m78.5-2v94" stroke="url(#k)"/><path d="m50.5 3v84" opacity=".3" stroke="url(#l)"/><path d="m41 16.5h107" stroke="url(#m)"/><path d="m41 9.5h107" stroke="url(#n)"/><path d="m29 79.5h130" stroke="url(#o)"/><path d="m19 65.5h150" stroke="url(#p)"/><path d="m-10 44.5h209" opacity=".8" stroke="url(#q)"/><path d="m-10 37.5h209" stroke="url(#r)"/><path d="m14 23.5h161" stroke="url(#s)"/><path d="m120.5-0v90" stroke="url(#t)"/><path d="m134.5 3v84" opacity=".3" stroke="url(#u)"/><path d="m71.5 3v84" stroke="url(#v)"/><path d="m57.5 3v84" stroke="url(#w)"/><path d="m99.5 3v84" stroke="url(#x)"/><path d="m71 71h-1zm-2 2v1zm0-56v1zm2 2h1zm-13 0h-1zm2-2v-1zm-2 54h1zm2 2v-1zm60-27c.552 0 1-.4477 1-1s-.448-1-1-1zm-21 19c0 .5523.4477 1 1 1 .552 0 1-.4477 1-1zm32.995-24.4548.707.7068zm6.554.2063.708-.7066-.001-.0002zm1.483 1.4854-.707.7066v.0002zm.207 6.5595.707.7069v-.0001zm-23.924 23.9405-.708-.7068zm-2.749 1.6357-.275-.9615-.049.014-.047.0189zm-8.283 3.3093.352.9363.01-.0037.009-.0039zm1.153-10.4453.926.3778.021-.0507.015-.0525zm1.635-2.7509-.708-.7068zm14.402-14.4128.707.7068zm2.829.0001-.707.7068zm-22.277 25.5925.986.1664zm.084-.2719-.926-.3778zm27.61-17.0718-.707-.7068zm0-2.8273.708-.7068zm-27.039 21.8535-.697.7175zm-.217-.2176-.718.6964zm25.995-34.0473-.707-.7068zm8.247 8.249.707.7069zm-56.705-26.3321h37v-2h-37zm38 1v9h2v-9zm-1 10h-37v2h37zm-38-1v-9h-2v9zm1 1c-.5523 0-1-.4477-1-1h-2c0 1.6569 1.3431 3 3 3zm38-1c0 .5523-.448 1-1 1v2c1.657 0 3-1.3431 3-3zm-1-10c.552 0 1 .4477 1 1h2c0-1.6569-1.343-3-3-3zm-37-2c-1.6569 0-3 1.3431-3 3h2c0-.5523.4477-1 1-1zm-22 48v-52h-2v52zm1-53h9v-2h-9zm10 1v52h2v-52zm-1 53h-9v2h9zm1-1c0 .5523-.4477 1-1 1v2c1.6569 0 3-1.3431 3-3zm-1-53c.5523 0 1 .4477 1 1h2c0-1.6569-1.3431-3-3-3zm-10 1c0-.5523.4477-1 1-1v-2c-1.6569 0-3 1.3431-3 3zm-2 52c0 1.6569 1.3431 3 3 3v-2c-.5523 0-1-.4477-1-1zm45-25h18v-2h-18zm-1 19v-18h-2v18zm1-21c-1.657 0-3 1.3431-3 3h2c0-.5523.448-1 1-1zm-21 2h9v-2h-9zm10 1v16h2v-16zm-1 17h-9v2h9zm-10-1v-16h-2v16zm1 1c-.5523 0-1-.4477-1-1h-2c0 1.6569 1.3431 3 3 3zm10-1c0 .5523-.4477 1-1 1v2c1.6569 0 3-1.3431 3-3zm-1-17c.5523 0 1 .4477 1 1h2c0-1.6569-1.3431-3-3-3zm-9-2c-1.6569 0-3 1.3431-3 3h2c0-.5523.4477-1 1-1zm-17 16h6v-2h-6zm0-14h6v-2h-6zm0-14h6v-2h-6zm0 35h3v-2h-3zm0-14h3v-2h-3zm0-14h3v-2h-3zm0-14h3v-2h-3zm68.702 16.252c1.41-1.4106 3.613-1.3214 5.14.2063l1.414-1.4136c-2.188-2.1898-5.664-2.5132-7.969-.2064zm5.139.2061 1.484 1.4854 1.415-1.4132-1.483-1.4854zm1.484 1.4856c1.527 1.5281 1.616 3.7348.206 5.1459l1.415 1.4136c2.305-2.3063 1.981-5.7837-.206-7.9731zm.206 5.1458-2.534 2.5358 1.415 1.4137 2.534-2.5357zm-3.949 2.5357-5.416-5.4215-1.415 1.4135 5.417 5.4216zm-5.416-6.8352 2.536-2.538-1.415-1.4137-2.536 2.538zm-.154 13.825-14.405 14.4151 1.415 1.4137 14.404-14.4151zm-14.405 14.4151c-.631.6317-1.451 1.1336-2.316 1.381l.55 1.923c1.215-.3474 2.326-1.0351 3.181-1.8904zm-2.412 1.4139-8.283 3.3093.742 1.8573 8.283-3.3094zm-8.263 3.3017c-.198.0744-.4.0358-.555-.1152l-1.394 1.435c.728.7064 1.752.8905 2.652.5527zm-.752-.3116c-.144-.1485-.209-.364-.169-.6022l-1.972-.3327c-.132.7852.064 1.6665.706 2.3276zm-.146-.6628 3.328-8.1569-1.852-.7555-3.327 8.1569zm3.364-8.2601c.247-.8665.749-1.6869 1.38-2.3187l-1.415-1.4136c-.854.8552-1.541 1.9678-1.888 3.1832zm1.38-2.3187 14.402-14.4128-1.415-1.4136-14.402 14.4128zm15.817-14.4127 5.417 5.4215 1.415-1.4136-5.417-5.4215zm-1.415-.0001c.391-.3909 1.024-.3908 1.415.0001l1.415-1.4136c-1.172-1.1728-3.073-1.1728-4.245-.0001zm-19.169 25.0522c-.001.008-.002.0079.002-.0029.003-.0112.01-.029.021-.0577l-1.851-.7555c-.047.1152-.11.2838-.144.4834zm27.415-16.8032c1.171-1.1714 1.171-3.0695.001-4.241l-1.415 1.4136c.39.3905.39 1.0232 0 1.4137zm-27.049 17.6018c-.067-.0642-.132-.1298-.197-.1964l-1.435 1.3927c.078.0804.158.1602.238.2387zm25.789-31.4268c-.39-.3905-.39-1.0233 0-1.4137l-1.415-1.4137c-1.17 1.1713-1.171 3.0695 0 4.2409zm6.831 5.4216c-.39.3908-1.024.3908-1.415-.0001l-1.414 1.4136c1.171 1.1727 3.072 1.1728 4.244.0002z" fill="#fff"/></g></svg>