<svg fill="none" height="90" viewBox="0 0 182 90" width="182" xmlns="http://www.w3.org/2000/svg" xmlns:xlink="http://www.w3.org/1999/xlink"><linearGradient id="a"><stop offset=".03" stop-color="#64748b" stop-opacity="0"/><stop offset=".16" stop-color="#64748b" stop-opacity=".74"/><stop offset=".275" stop-color="#64748b"/><stop offset=".715" stop-color="#64748b"/><stop offset=".81" stop-color="#64748b" stop-opacity=".75"/><stop offset=".96" stop-color="#64748b" stop-opacity="0"/></linearGradient><linearGradient id="b" gradientUnits="userSpaceOnUse" x1="90.4999" x2="90.4999" xlink:href="#a" y1="90.1494" y2="-2.68505"/><linearGradient id="c" gradientUnits="userSpaceOnUse" x1="124.157" x2="57.3356" xlink:href="#a" y1="79.307" y2="12.4854"/><linearGradient id="d"><stop offset=".03" stop-color="#64748b" stop-opacity="0"/><stop offset=".215" stop-color="#64748b" stop-opacity=".74"/><stop offset=".345" stop-color="#64748b"/><stop offset=".475" stop-color="#64748b"/><stop offset=".625" stop-color="#64748b"/><stop offset=".88" stop-color="#64748b" stop-opacity=".75"/><stop offset="1" stop-color="#64748b" stop-opacity="0"/></linearGradient><linearGradient id="e" gradientUnits="userSpaceOnUse" x1="144.231" x2="98.6277" xlink:href="#d" y1="36.8008" y2="82.4037"/><linearGradient id="f" gradientUnits="userSpaceOnUse" x1="141.704" x2="96.9158" xlink:href="#d" y1="53.8258" y2="9.03725"/><linearGradient id="g" gradientUnits="userSpaceOnUse" x1="42.8909" x2="88.4937" xlink:href="#d" y1="34.6793" y2="80.2822"/><linearGradient id="h" gradientUnits="userSpaceOnUse" x1="40.2694" x2="85.8723" xlink:href="#d" y1="52.6091" y2="7.00625"/><linearGradient id="i" gradientUnits="userSpaceOnUse" x1="105" x2="10.5" xlink:href="#a" y1="1.50011" y2="1.50011"/><linearGradient id="j"><stop offset=".03" stop-color="#64748b" stop-opacity="0"/><stop offset=".18" stop-color="#64748b" stop-opacity=".74"/><stop offset=".345" stop-color="#64748b"/><stop offset=".475" stop-color="#64748b"/><stop offset=".625" stop-color="#64748b"/><stop offset=".785" stop-color="#64748b" stop-opacity=".75"/><stop offset=".96" stop-color="#64748b" stop-opacity="0"/></linearGradient><linearGradient id="k" gradientUnits="userSpaceOnUse" x1="76.4999" x2="76.4999" xlink:href="#j" y1="83.053" y2="6.50531"/><linearGradient id="l" gradientUnits="userSpaceOnUse" x1="62.4999" x2="62.4999" xlink:href="#j" y1="81.4337" y2="8.14338"/><linearGradient id="m" gradientUnits="userSpaceOnUse" x1="48.4999" x2="48.4999" xlink:href="#j" y1="79.0048" y2="10.6005"/><linearGradient id="n" gradientUnits="userSpaceOnUse" x1="104.5" x2="104.5" xlink:href="#j" y1="83.053" y2="6.50531"/><linearGradient id="o" gradientUnits="userSpaceOnUse" x1="137.816" x2="50.6816" xlink:href="#j" y1="18.5001" y2="18.5001"/><linearGradient id="p" gradientUnits="userSpaceOnUse" x1="146.627" x2="40.7627" xlink:href="#j" y1="74.5001" y2="74.5001"/><linearGradient id="q" gradientUnits="userSpaceOnUse" x1="159.676" x2="28.5676" xlink:href="#j" y1="60.5001" y2="60.5001"/><linearGradient id="r" gradientUnits="userSpaceOnUse" x1="179.107" x2="8.91073" xlink:href="#a" y1="46.5001" y2="46.5001"/><linearGradient id="s" gradientUnits="userSpaceOnUse" x1="159.676" x2="28.5676" xlink:href="#j" y1="32.5001" y2="32.5001"/><linearGradient id="t" gradientUnits="userSpaceOnUse" x1="118.5" x2="118.5" xlink:href="#j" y1="81.4337" y2="8.14338"/><linearGradient id="u" gradientUnits="userSpaceOnUse" x1="132.5" x2="132.5" xlink:href="#j" y1="79.0048" y2="10.6005"/><clipPath id="v"><path d="m0 0h182v90h-182z"/></clipPath><g clip-path="url(#v)"><path d="m92.5-13v114" stroke="url(#b)"/><path d="m51.3252 3.64645 82.0568 82.05635" stroke="url(#c)"/><path d="m92.5 86.4099 56-56" stroke="url(#e)"/><path d="m93 3 55 55" stroke="url(#f)"/><path d="m92.5 86.4099-56-56" stroke="url(#g)"/><path d="m92 3-56 56" stroke="url(#h)"/><path d="m0-.5h116.045" stroke="url(#i)" transform="matrix(-.707107 .707107 .707107 .707107 134.028 4)"/><path d="m78.5-2v94" stroke="url(#k)"/><path d="m64.5-0v90" stroke="url(#l)"/><path d="m50.5 3v84" opacity=".3" stroke="url(#m)"/><path d="m106.5-2v94" stroke="url(#n)"/><path d="m41 16.5h107" stroke="url(#o)"/><path d="m29 72.5h130" stroke="url(#p)"/><path d="m14 58.5h161" stroke="url(#q)"/><path d="m-10 44.5h209" opacity=".8" stroke="url(#r)"/><path d="m14 30.5h161" stroke="url(#s)"/><path d="m120.5-0v90" stroke="url(#t)"/><path d="m134.5 3v84" opacity=".3" stroke="url(#u)"/><path d="m86.3426 29.4548c2.4427-1.0191 4.595-1.2261 6.0877-1.2261 9.2277 0 16.2847 7.4052 16.2847 16.3729-.068 8.9677-7.328 16.1012-16.2847 16.1691-5.7674.0679-10.7885-2.7175-14.0454-7.9487-3.8675-6.3861-4.6818-17.1202-1.1534-25.6123 2.3069-5.2312 7.8708-9.5113 13.9775-11.2097-14.9275.4076-27.2087 13.2478-27.2087 28.3299-.0679 15.7614 12.7562 28.6016 28.43 28.6695 10.6527.068 20.0167-5.8426 24.9017-14.5386m-36.7764-30.4359c2.1713-4.5518 6.6495-8.1525 12.1456-9.5791 1.2213-.3397 2.5105-.4756 3.9354-.5435 2.1034 0 4.1394.2717 6.2424.8152 5.225 1.5626 8.889 4.6197 11.06 6.9976 2.782 3.193 4.614 6.5219 5.699 9.8509 0 .0679.068.1358.068.2717.068.2718.34 1.087.34 1.2908.067.1359.067.3397.135.4756.068.2717.136.5435.204.8152 0 .068 0 .1359.068.2039 1.764 8.7639-1.167 16.6286-2.931 19.5499-.441.7307-.804 1.3403-1.167 1.8996 4.004-21.7399-7.505-32.1157-20.6005-32.3875-6.8531-.1358-13.7061 2.6496-17.0309 8.2205.2036-3.0572.4071-4.7557 1.832-7.8808z" stroke="#fff" stroke-width="2"/></g></svg>