<svg fill="none" height="90" viewBox="0 0 182 90" width="182" xmlns="http://www.w3.org/2000/svg" xmlns:xlink="http://www.w3.org/1999/xlink"><linearGradient id="a"><stop offset=".03" stop-color="#64748b" stop-opacity="0"/><stop offset=".16" stop-color="#64748b" stop-opacity=".74"/><stop offset=".275" stop-color="#64748b"/><stop offset=".715" stop-color="#64748b"/><stop offset=".81" stop-color="#64748b" stop-opacity=".75"/><stop offset=".96" stop-color="#64748b" stop-opacity="0"/></linearGradient><linearGradient id="b" gradientUnits="userSpaceOnUse" x1="90.4999" x2="90.4999" xlink:href="#a" y1="90.1494" y2="-2.68505"/><linearGradient id="c"><stop offset=".03" stop-color="#64748b" stop-opacity="0"/><stop offset=".18" stop-color="#64748b" stop-opacity=".74"/><stop offset=".345" stop-color="#64748b"/><stop offset=".475" stop-color="#64748b"/><stop offset=".625" stop-color="#64748b"/><stop offset=".785" stop-color="#64748b" stop-opacity=".75"/><stop offset=".96" stop-color="#64748b" stop-opacity="0"/></linearGradient><linearGradient id="d" gradientUnits="userSpaceOnUse" x1="76.4999" x2="76.4999" xlink:href="#c" y1="83.053" y2="6.50531"/><linearGradient id="e" gradientUnits="userSpaceOnUse" x1="62.4999" x2="62.4999" xlink:href="#c" y1="81.4337" y2="8.14338"/><linearGradient id="f" gradientUnits="userSpaceOnUse" x1="48.4999" x2="48.4999" xlink:href="#c" y1="79.0048" y2="10.6005"/><linearGradient id="g" gradientUnits="userSpaceOnUse" x1="104.5" x2="104.5" xlink:href="#c" y1="83.053" y2="6.50531"/><linearGradient id="h" gradientUnits="userSpaceOnUse" x1="137.816" x2="50.6816" xlink:href="#c" y1="18.5001" y2="18.5001"/><linearGradient id="i" gradientUnits="userSpaceOnUse" x1="146.627" x2="40.7627" xlink:href="#c" y1="74.5001" y2="74.5001"/><linearGradient id="j" gradientUnits="userSpaceOnUse" x1="154.723" x2="32.5723" xlink:href="#c" y1="67.5001" y2="67.5001"/><linearGradient id="k" gradientUnits="userSpaceOnUse" x1="179.107" x2="8.91073" xlink:href="#a" y1="46.5001" y2="46.5001"/><linearGradient id="l" gradientUnits="userSpaceOnUse" x1="159.676" x2="28.5676" xlink:href="#c" y1="25.5001" y2="25.5001"/><linearGradient id="m" gradientUnits="userSpaceOnUse" x1="118.5" x2="118.5" xlink:href="#c" y1="81.4337" y2="8.14338"/><linearGradient id="n" gradientUnits="userSpaceOnUse" x1="132.5" x2="132.5" xlink:href="#c" y1="79.0048" y2="10.6005"/><linearGradient id="o" gradientUnits="userSpaceOnUse" x1="83.4999" x2="83.4999" xlink:href="#a" y1="79.0048" y2="10.6005"/><linearGradient id="p" gradientUnits="userSpaceOnUse" x1="69.4999" x2="69.4999" xlink:href="#c" y1="79.0048" y2="10.6005"/><linearGradient id="q" gradientUnits="userSpaceOnUse" x1="55.4999" x2="55.4999" xlink:href="#c" y1="79.0048" y2="10.6005"/><linearGradient id="r" gradientUnits="userSpaceOnUse" x1="97.4999" x2="97.4999" xlink:href="#c" y1="79.0048" y2="10.6005"/><linearGradient id="s" gradientUnits="userSpaceOnUse" x1="111.5" x2="111.5" xlink:href="#c" y1="79.0048" y2="10.6005"/><linearGradient id="t" gradientUnits="userSpaceOnUse" x1="125.5" x2="125.5" xlink:href="#c" y1="79.0048" y2="10.6005"/><clipPath id="u"><path d="m0 0h182v90h-182z"/></clipPath><g clip-path="url(#u)"><path d="m92.5-13v114" stroke="url(#b)"/><path d="m78.5-2v94" stroke="url(#d)"/><path d="m64.5-0v90" stroke="url(#e)"/><path d="m50.5 3v84" opacity=".3" stroke="url(#f)"/><path d="m106.5-2v94" stroke="url(#g)"/><path d="m41 16.5h107" stroke="url(#h)"/><path d="m29 72.5h130" stroke="url(#i)"/><path d="m19 65.5h150" stroke="url(#j)"/><path d="m-10 44.5h209" opacity=".8" stroke="url(#k)"/><path d="m14 23.5h161" stroke="url(#l)"/><path d="m120.5-0v90" stroke="url(#m)"/><path d="m134.5 3v84" opacity=".3" stroke="url(#n)"/><path d="m85.5 3v84" stroke="url(#o)"/><path d="m71.5 3v84" stroke="url(#p)"/><path d="m57.5 3v84" stroke="url(#q)"/><path d="m99.5 3v84" stroke="url(#r)"/><path d="m113.5 3v84" stroke="url(#s)"/><path d="m127.5 3v84" opacity=".3" stroke="url(#t)"/><path d="m120 22.5v-3.5c0-1.1046.895-2 2-2h3c1.105 0 2 .8954 2 2v3.5m-7 36.5v4c0 1.1046.895 2 2 2h3c1.105 0 2-.8954 2-2v-4m-7-8v-6m7 0v6m-7-14v-6m7 0v6m-69 36h70m-34-8h3c1.1046 0 2-.8954 2-2v-37c0-1.1046-.8954-2-2-2h-3c-1.1046 0-2 .8954-2 2v37c0 1.1046.8954 2 2 2zm-14 0h3c1.1046 0 2-.8954 2-2v-23c0-1.1046-.8954-2-2-2h-3c-1.1046 0-2 .8954-2 2v23c0 1.1046.8954 2 2 2zm-14 0h3c1.1046 0 2-.8954 2-2v-16c0-1.1046-.8954-2-2-2h-3c-1.1046 0-2 .8954-2 2v16c0 1.1046.8954 2 2 2zm42 0h3c1.105 0 2-.8954 2-2v-30c0-1.1046-.895-2-2-2h-3c-1.105 0-2 .8954-2 2v30c0 1.1046.895 2 2 2z" stroke="#fff" stroke-linecap="round" stroke-width="2"/></g></svg>