<svg fill="none" height="31" viewBox="0 0 31 31" width="31" xmlns="http://www.w3.org/2000/svg"><g fill="#f8fafc"><path d="m15.9739.5c3.2141.89391 6.1425 3.14657 7.3566 5.89982 1.8571 4.46958 1.4285 10.11908-.6071 13.48018-1.7141 2.7533-4.3568 4.2193-7.3923 4.1835-4.7139-.0357-8.53506-3.7902-8.57077-8.51 0-4.7199 3.71397-8.61733 8.57077-8.61733.7857 0 1.9185.10896 3.2041.6453 0 0-.9242-.54743-3.298-.91517-6.82089-.89392-14.869262 4.2746-13.01225 16.1815 2.57124 4.5768 7.49945 7.6877 13.10615 7.6519 8.2494-.0358 14.9989-6.7937 14.9632-15.0892 0-7.93798-6.4638-14.695961-14.3204-14.9105z"/><path d="m21.5806 6.82894c-1.1428-2.39568-3.4998-4.29078-6.3924-5.04167-.6429-.17878-1.3214-.25029-2.0713-.28605-1.1071 0-2.1784.14303-3.28549.42908-2.7498.8224-4.67824 2.43144-5.82101 3.68292-1.46418 1.68055-2.42839 3.43262-2.99978 5.18468 0 .0358-.035713.0715-.035713.143-.035711.1431-.178558.5721-.178558.6794-.035712.0715-.035712.1788-.071424.2503-.035711.143-.071423.2861-.107135.4291 0 .0357 0 .0715-.035711.1073-.928504 4.6125.613961 8.7519 1.542471 10.2894.23224.3846.42294.7054.61407.9998-2.106988-11.4421 3.95016-16.90301 10.84248-17.04604 3.6069-.07151 7.2138 1.3945 8.9637 4.32654-.1072-1.60905-.2143-2.50296-.9642-4.14776z"/></g></svg>