<svg fill="none" height="31" viewBox="0 0 31 31" width="31" xmlns="http://www.w3.org/2000/svg"><path d="m16.5098 18.2844h8.199v5.426c-2.2618 1.4488-4.9634 2.2159-7.7278 2.1875-6.5654 0-10.90052-4.3749-10.90052-10.3691v-.0852c0-5.53962 4.49212-10.22699 10.39792-10.22699 3.3612-.08523 6.5968 1.02269 9.0157 3.0965l3.5497-3.86352c-3.2984-2.52834-6.7225-3.948766-12.3455-3.948766-9.01572-.085225-16.429335 6.448696-16.554989 14.601876v.3977.0852c0 8.4657 6.596859 14.9144 16.617789 14.9144 4.9319 0 9.6754-1.6193 13.3822-4.5453v-12.1588h-13.6335z" fill="#f8fafc"/></svg>