<svg fill="none" height="17" viewBox="0 0 31 17" width="31" xmlns="http://www.w3.org/2000/svg"><path clip-rule="evenodd" d="m11.2664 8.20514c.9789-1.84116 2.9159-3.0954 5.1466-3.0954 3.2173 0 5.8258 2.6082 5.8257 5.82596 0 3.2173-2.6083 5.8258-5.8258 5.8258-2.2307 0-4.1676-1.2542-5.1465-3.0955-.9788 1.8412-2.91578 3.0956-5.14643 3.0956-3.18508 0-5.771565-2.5567-5.823353-5.7294h-.002428v-9.66527h.00054c.013486-.632374.529341-1.141283 1.165091-1.141283.63568 0 1.15167.508909 1.16529 1.141283h.00054v4.90723c.97345-.7311 2.18331-1.16428 3.49439-1.16428 2.23065 0 4.16756 1.25403 5.14636 3.09526zm-8.64082 2.73056c0 1.9299 1.56442 3.4943 3.49439 3.4943s3.49446-1.5644 3.49446-3.4943c0-1.93008-1.56449-3.4945-3.49446-3.4945-1.9299 0-3.49439 1.56442-3.49439 3.4945zm10.29302-.0001c0 1.93 1.5643 3.4944 3.4944 3.4944 1.9298 0 3.4944-1.5644 3.4944-3.4944 0-1.93011-1.5646-3.4944-3.4944-3.4944-1.93 0-3.4944 1.56429-3.4944 3.4944zm14.1734.0043 2.9836 3.9881-.0006.0006c.3691.5137.2621 1.2305-.2462 1.6123-.5083.3816-1.2264.2847-1.6171-.2127l-.0002.0001-2.5751-3.4423-2.5751 3.4423-.0004-.0005c-.3906.4977-1.1087.5947-1.6171.2128-.5084-.3818-.6154-1.0984-.2461-1.6122l-.0005-.0004 2.9835-3.9881-2.9835-3.9882.0005-.00033c-.3692-.5137-.2623-1.23043.2461-1.61237.5084-.3818 1.2265-.2849 1.6171.21309l.0004-.00061 2.5751 3.4422 2.5751-3.4422.0002.00014c.3907-.49752 1.1088-.59442 1.6171-.21289.5083.38194.6153 1.09867.2462 1.6125l.0006.00047z" fill="#f8fafc" fill-rule="evenodd"/></svg>