<svg fill="none" height="31" viewBox="0 0 25 31" width="25" xmlns="http://www.w3.org/2000/svg"><path d="m11.6868.500245c-1.2227 0-2.43226.053115-3.60405.108386h-.21202c-.44218.022109-.86469.046447-1.28034.072978h-.2185c-3.53746.221091-6.228579.559201-6.228579.559201v3.19035l.038001 2.51182v.23621l.019863 1.26696v.22109l.092841 6.23496c-.009088 2.0431.461861 4.0597 1.374904 5.8875 2.46074 5.0143 7.54142 8.1803 9.50688 9.2681l.8425.4422.8002-.4422c2.0495-1.0922 7.3517-4.3 9.8984-9.3696.9179-1.7857 1.4005-3.7632 1.4082-5.7709l.1149-7.85098.0552-2.92481v-2.89187s-2.8739-.376014-6.6767-.601527h-.177c-1.289-.07296-2.6752-.130426-4.088-.148113h-.9815zm.7518 1.996295h.4288l.1593.40893c.0486.13487.0951.25669.146.39598h.0108c.0486-.13708.1016-.25857.1502-.39122.0487-.13266.1041-.2719.1572-.40677h.4202c-.1769.3847-.3545.76571-.5329 1.14302v.63434h-.4025l-.0021-.63909c-.1791-.38249-.3582-.7627-.535-1.14519zm-1.5321.00907h.6101c.3693 0 .6633.09949.6633.44219.002.07988-.019.15866-.0606.22689-.0416.06824-.1019.12304-.1739.15785v.01079c.0945.01996.1788.07307.2376.14973.0587.07666.0881.17182.0828.26827 0 .36038-.3048.52153-.6917.52595h-.6633zm-1.24929.02634v1.76873l-.41368.01339-.46421-.87099c-.05748-.12602-.11697-.2522-.17445-.38043h-.01123c.01769.19677.05096.44227.05096.64125v.63219l-.37137.02677v-1.76873l.4111-.0177.4642.86665.17704.38475c-.01989-.18793-.05311-.44223-.05311-.64342v-.63909zm5.20909.00217.5018.01555c.5439.01989.8844.3074.8844.91761s-.3515.8845-.871.86018l-.5264-.01555zm2.509.07168c.0146.00016.0295.00047.0445.00131.4775.02653.8092.38498.8092.96424s-.3295.90648-.8092.88437c-.4798-.02211-.8071-.39131-.8071-.9772 0-.56116.3091-.8776.7626-.87272zm-10.14169.03023c.34552-.00222.6175.12359.6175.51948 0 .27351-.13007.44408-.32429.53632l.39942.68401-.44218.02202-.33942-.62009-.21764.01209v.63909l-.40245.02418v-1.77521l.63867-.03973c.02362-.00124.04735-.002.07039-.00216zm11.41119.08636.402.03066v1.76873l-.402-.0285zm-13.03798.01727c.18571.57632.37132 1.15586.55704 1.73806l-.42448.0285-.10881-.41498-.54323.03972c-.03636.14301-.07224.28587-.10838.42837l-.40893.03325.55704-1.82184v.00432zm14.03928.06002.4111.03541c.1474.30805.3014.61605.462.9241.0597.13486.1174.27189.1771.40676h.0112c-.0199-.18793-.0531-.44207-.0531-.6499v-.62785l.3822.03497v1.76873l-.4111-.03972c-.1474-.30953-.3014-.6182-.4621-.92627l-.1744-.40461h-.0113c.0177.19677.051.44211.051.64773v.63002l-.3826-.01512zm-8.3376.01555v.39769h.1883v-.00647c.1968 0 .2829-.08402.2829-.22109 0-.13708-.0929-.17014-.2786-.17014zm-7.0793.03497v.33639l-.70948.06607v.35625l.60324-.05528v.33595l-.60324.05743v.41585l.73625-.06866v.33595c-.37806.03317-.75843.0708-1.1387.10839l.00647-1.78427zm11.0391.02246v1.12964h.0751c.3029.01105.5065-.12823.5065-.55273 0-.42449-.2036-.56586-.5065-.57691zm-8.13816.07729-.20555.0108v.51775l.20555-.01339v-.01122c.21003-.01106.32473-.10597.32473-.28285 0-.17687-.11469-.22109-.32473-.22109zm10.26706.00821c-.2299.00007-.371.19969-.371.54452 0 .35596.1524.59036.3934.60584.241.01547.396-.20368.396-.55963 0-.35596-.1528-.57703-.396-.59029-.0076-.00042-.015-.00044-.0224-.00044zm4.8277.06218c.0289.00024.0581.00186.0877.00475.2167.02438.4163.12935.5592.29407l-.2211.23447c-.0837-.10087-.2035-.16515-.3338-.17921-.272-.03095-.4664.16352-.4664.51948s.1658.5946.4975.63219c.0645.01023.1306-.00132.1878-.03282v-.30531c-.0973-.01326-.1946-.02219-.2941-.03325v-.32947l.6499.07514v.8183c-.0823.06268-.1765.10811-.2768.13356s-.2047.0304-.307.01456c-.2478-.01927-.478-.13549-.6407-.32346-.1627-.18796-.2446-.4325-.2281-.68052h.0091c0-.55134.344-.84604.7768-.84248zm-16.87234.038c-.04421.19014-.0904.4021-.13904.58339-.01501.05754-.02961.1155-.04448.17316l.38174-.02893-.04318-.16409c-.04865-.17466-.09737-.38001-.1438-.56352zm-3.38026.01986v1.44141l.70084-.0773v.33595c-.36701.0398-.73403.07971-1.10546.12393l.00432-1.77779zm9.3411.42448v.45989h.2211v.00432c.2211 0 .3316-.07951.3316-.24312 0-.1636-.1105-.22109-.3316-.22109zm1.0545 2.80542c.5903 0 1.1784-.00003 1.7687.01986l-1.8482 3.17952.0929.05311.0907.05311.1502.10148c.0288.01989.0573.03964.0838.06175l.0777.06002.0553-.07298 2.8742-3.38932c1.1386.04642 2.2286.11061 3.2279.18136l-5.5626 3.88899c.0199.0287.0418.055.0617.0859.0199.031.0398.0577.0575.0864.0176.0287.0333.0508.0487.0751l.0462.0795c.0177.0309.0355.0619.051.0928.0155.031.0333.0623.0488.0933l7.8487-4.18083c.4422.0398.8356.08165 1.185.11702l.1373.01555.1502 4.87746-.009.0022-.0177-.0134-.0618-.0376c-.8556-.5881-2.5271-2.18237-2.6177-2.18237-.0177 0-5.9363 2.15347-5.9363 2.15347-.0472.0113-.0953.0179-.1438.0199l-.2919-.0704-1.1055-.2544-.1545-.0354-.1572-.0375h-.051l-.139-.0333-.1373-.0311-.4047-.0928-.1127-.0264-.1921-.0445-.0929-.0306-.2543-.0596-.1106-.0177-.1701-.0402-.1041-.022-.0639-.0155-.1835.0954-.095.0505-.1485.0773-.095.0488-.19436.1019-.09501.0505-.1507.0799-.09716.0506-.2673.1394-.11529.0467-.20771.1105h-1.55628c-2.58234 0-5.57371.1633-6.08222.1965l.1058-2.81449 6.08001 2.23129.03325-.0998.03756-.0993.07298-.1658.04664-.095.04836-.0929-6.26572-3.19076.02677-.703c.74287-.07738 1.74408-.17908 2.92482-.27637l3.8052 3.48663.07297-.0773.0773-.07299.13473-.11918.0842-.0665.08378-.06175-2.52-3.21931c.59473-.0398 1.22031-.07738 1.8659-.11055l1.3883 2.92305.09759-.03541.09932-.03541.17445-.05096.10191-.02634.10411-.01986-.66332-2.81029.50394-.0108c.41348 0 .82918-.02229 1.24708-.02893l-.2522 2.79261h.1041l.1058.01079c.0597 0 .1195.01793.1792.02677l.1041.02203.1014.02202zm7.3959 4.3799-2.1155 1.3776-1.3973-.1041.285-.0993c.8446-.3029 3.2278-1.1742 3.2278-1.1742zm-8.0145 2.5936c.7532 0 1.4717.0166 2.1556.0505 5.3858.2498 8.5366 1.4216 9.0031 1.6007l.0596.0246c.0087.2848-.0008.5698-.0285.8533h.0064c-.0468.5375-.1318 1.071-.2543 1.5964-.2314 1.0196-.5847 2.0075-1.0524 2.9426-.6733 1.3383-1.5595 2.5584-2.6241 3.6126-3.7276 3.732-7.0196 4.5945-7.0196 4.5945s-3.0754-.964-6.66592-4.5523c-1.0687-1.0557-1.96408-2.2734-2.6531-3.6082-.42592-.8377-.75952-1.7192-.99491-2.629-.12719-.482-.22396-.9715-.28974-1.4656-.0545-.3815-.0789-.7667-.07298-1.1521l.07298-.0397c.79324-.3846 1.62379-.6868 2.47866-.9021 1.22476-.3271 2.47212-.5628 3.73179-.7051 1.37705-.1547 2.76172-.2285 4.14742-.2211zm-4.9456 1.45-.07298 2.3215c-.03135.2798.03684.5617.19259.7962l.05268.0683c.18869.2409.44059.4246.72761.5307.47334.1733.96937.2769 1.47251.3074l.35149.0177-.30961.1702-.04621.022c-.25239.0958-.52194.138-.79153.1239-.32432-.0135-.64654-.0586-.9621-.1347.0597.0663.13487.1437.22109.2211l.06003.0574c.34639.322.78613.5255 1.25573.5812.47092.0885 1.3532.2211 1.3598.2211l.3049.0424-.2453.1304-.0268.0129c-.2678.1165-.55978.1666-.8511.146-.29848-.01-.595-.0523-.88437-.1261l.16582.1813.06434.0687c.27614.2526.61392.4281.97937.5087.13708.0398.27614.0727.41324.1036.4886.1062.9244.1525.9289.1525l.3182.0332-.1878.1019-.0929.051c-.2855.1309-.6011.182-.9133.1481-.1673-.011-.33364-.0347-.49743-.0708l-2.21091 2.0714.7384.785 2.25754-2.118c.5571.2915 1.1696.4617 1.7972.4996l.9751.0332 1.6539 1.7178h.8666l-3.5706-3.8691 1.5675-1.4634.2211-.206.0531-.0505.0419-.0376 1.1698 1.2579.5924.0177 1.3024-1.1564.0155-.5549-.0423-.0574-1.1737-1.2691.6896-.6499-.7362-.7872-.4422.4111.0644.6369-1.5611-1.6672-.5903-.0199-1.3045 1.1586-.0155.5549 1.2557 1.3619-.0639.0596-.2388.2211-1.5213 1.4617-4.45256-4.8043z" fill="#f8fafc"/></svg>