<svg fill="none" height="31" viewBox="0 0 22 31" width="22" xmlns="http://www.w3.org/2000/svg"><path clip-rule="evenodd" d="m14.6848 30.5h3c.2344 0 .4688-.1875.4688-.4688 0-.0468 0-.0937-.0469-.1406l-10.68751-29.10935c-.04688-.140625-.23438-.28125-.42188-.28125h-3c-.23437 0-.46875.1875-.46875.46875 0 .04687 0 .09375.04688.14063l10.68746 29.10942c.0469.1874.2344.2812.4219.2812zm.5156-15h3c.2344 0 .4688-.1875.4688-.4688 0-.0468 0-.1406-.0469-.1874l-5.1562-14.06255c-.0938-.140625-.2344-.28125-.4219-.28125h-3c-.23439 0-.46877.1875-.46877.46875 0 .04687 0 .09375.04688.14063l5.20309 14.15622c.0469.1406.1875.2344.375.2344zm-3.4687 15h-3.00001c-.1875 0-.32813-.0938-.46875-.2812l-5.15625-14.1094c-.04688-.0469-.04688-.0938-.04688-.1406 0-.2344.1875-.4688.42188-.4688h3.04687c.1875 0 .375.0937.42188.2812l5.20316 14.1094c.0468.0469.0468.1406.0468.1875-.0468.2344-.2343.4219-.4687.4219zm3.8437-29.39062 2.4375 6.60937c.0469.1875.2344.28125.4219.28125h2.9531c.2344 0 .4688-.1875.4688-.46875 0-.04687 0-.09375-.0469-.14063l-2.4375-6.60937c-.0469-.140625-.1875-.28125-.375-.28125h-3c-.2344 0-.4687.1875-.4687.46875 0 .04687 0 .09375.0468.14063zm-9.37496 29.39062h-3c-.1875 0-.375-.0938-.42188-.2812l-2.437495-6.6094c-.046876-.0469-.046876-.0938-.046876-.1406 0-.2813.234375-.4688.46875-.4688h3.000001c.1875 0 .375.0938.42187.2812l2.4375 6.6094c.04688.0469.04688.0938.04688.1406 0 .2813-.23438.4688-.46875.4688z" fill="#f8fafc" fill-rule="evenodd"/></svg>