<svg fill="none" height="13" viewBox="0 0 13 13" width="13" xmlns="http://www.w3.org/2000/svg"><path d="m7.65625 1.9375c-.38281 0-.65625-.27344-.65625-.65625 0-.355469.27344-.65625.65625-.65625h3.93755c.3554 0 .6562.300781.6562.65625v3.9375c0 .38281-.3008.65625-.6562.65625-.3829 0-.6563-.27344-.6563-.65625v-2.35156l-5.46875 5.4414c-.24609.27344-.65625.27344-.90234 0-.27344-.24609-.27344-.65625 0-.92968l5.44139-5.44141zm-7.65625 1.09375c0-.82031.683594-1.53125 1.53125-1.53125h3.0625c.35547 0 .65625.30078.65625.65625 0 .38281-.30078.65625-.65625.65625h-3.0625c-.13672 0-.21875.10938-.21875.21875v8.31255c0 .1367.08203.2187.21875.2187h8.3125c.10937 0 .21875-.082.21875-.2187v-3.06255c0-.35547.2734-.65625.6563-.65625.3554 0 .6562.30078.6562.65625v3.06255c0 .8476-.7109 1.5312-1.53125 1.5312h-8.3125c-.847656 0-1.53125-.6836-1.53125-1.5312z" fill="#cbd5e1"/></svg>